<svg width="32" height="32" viewBox="0 0 32 32" fill="none" xmlns="http://www.w3.org/2000/svg">
<circle cx="16" cy="16" r="15.5" stroke="#BAC9CD"/>
<path fill-rule="evenodd" clip-rule="evenodd" d="M20.8442 14.3125L20.839 14.5047L20.8442 14.7083L20.8393 14.9009L20.8442 15.1041L20.8395 15.298L20.8441 15.5L20.7156 21.1232C20.6851 22.4574 19.6703 23.5623 18.3436 23.7059C16.4535 23.9106 14.5469 23.9106 12.6569 23.7059C11.3301 23.5623 10.3154 22.4574 10.2849 21.1232L10.1563 15.5L10.161 15.2967L10.1563 15.1041L10.1612 14.9017L10.1563 14.7083L10.1614 14.5056L10.1562 14.3125L10.2861 9.48496C10.2879 9.4176 10.2926 9.35095 10.3002 9.28512L10.3031 9.25728L10.3055 9.23485C10.3693 8.58243 10.7308 8.01342 11.2577 7.67195C11.297 7.6458 11.3372 7.62091 11.3783 7.59732C11.4185 7.57353 11.4596 7.55096 11.5014 7.52968C11.7599 7.39322 12.0485 7.30478 12.3557 7.2765C14.4476 7.08394 16.5528 7.08394 18.6448 7.2765C18.9514 7.30473 19.2396 7.39294 19.4978 7.52903C19.5396 7.55028 19.5807 7.57281 19.6209 7.59657C19.6633 7.62087 19.7048 7.64655 19.7452 7.67356C20.2693 8.01427 20.6293 8.58033 20.6945 9.22946L20.7006 9.28829C20.7079 9.35309 20.7126 9.41868 20.7143 9.48496L20.8442 14.3125ZM19.5173 9.42053L19.6416 14.8567L19.5409 18.6014C19.5183 19.4432 18.8698 20.1352 18.0312 20.2124C16.3474 20.3674 14.653 20.3674 12.9692 20.2124C12.1306 20.1352 11.4822 19.4432 11.4595 18.6014L11.3588 14.8571L11.4831 9.42053C11.4834 9.40883 11.4839 9.39719 11.4846 9.3856C11.5317 9.06713 11.7162 8.79222 11.9779 8.62529C12.077 8.57361 12.187 8.53934 12.304 8.52667C14.4286 8.29658 16.5718 8.29658 18.6964 8.52667C18.8134 8.53933 18.9233 8.57358 19.0224 8.62523C19.2842 8.7922 19.4689 9.06724 19.5159 9.38586C19.5166 9.39736 19.5171 9.40892 19.5173 9.42053ZM15.5002 23.1792C16.1561 23.1792 16.6877 22.6475 16.6877 21.9917C16.6877 21.3358 16.1561 20.8042 15.5002 20.8042C14.8444 20.8042 14.3127 21.3358 14.3127 21.9917C14.3127 22.6475 14.8444 23.1792 15.5002 23.1792Z" fill="#BAC9CD"/>
</svg>
