<?xml version="1.0" encoding="utf-8"?>
<!-- Generator: Adobe Illustrator 15.1.0, SVG Export Plug-In  -->
<!DOCTYPE svg PUBLIC "-//W3C//DTD SVG 1.1//EN" "http://www.w3.org/Graphics/SVG/1.1/DTD/svg11.dtd" [
	<!ENTITY ns_flows "http://ns.adobe.com/Flows/1.0/">
]>
<svg version="1.1"
	 xmlns="http://www.w3.org/2000/svg" xmlns:xlink="http://www.w3.org/1999/xlink" xmlns:a="http://ns.adobe.com/AdobeSVGViewerExtensions/3.0/"
	 x="0px" y="0px" width="558px" height="99px" viewBox="0 0 558 99" enable-background="new 0 0 558 99" xml:space="preserve">
<defs>
</defs>
<path fill="#2183D4" d="M0,68.223v4.884c0,0.917,1.104,1.375,1.741,0.716c13.238-13.705,41.382-34.555,92.134-38.015
	c1.591-0.108,2.84-1.415,2.84-3.009V2.863c0-1.549-1.334-2.752-2.874-2.582C82.399,1.538,39.14,8.818,6.989,48.548
	C2.483,54.117,0,61.059,0,68.223"/>
<path fill="#132F61" d="M0,81.098v15.721c0,1.217,0.986,2.202,2.203,2.202h92.31c1.216,0,2.202-0.985,2.202-2.202V54.961
	c0-1.6-1.284-2.895-2.884-2.895c-12.108-0.004-59.713,1.586-92.157,25.656C0.612,78.511,0,79.774,0,81.098"/>
<path fill="#132F61" d="M300.087,65.271h-20.803c-6.359,0-11.514,5.154-11.514,11.512v10.726c0,6.358,5.154,11.513,11.514,11.513
	h20.803c6.358,0,11.513-5.155,11.513-11.514V76.783C311.6,70.426,306.445,65.271,300.087,65.271 M302.816,86.731
	c0,2.318-1.879,4.197-4.196,4.197h-17.87c-2.318,0-4.197-1.879-4.197-4.197v-9.17c0-2.317,1.879-4.198,4.197-4.198h17.87
	c2.317,0,4.196,1.879,4.196,4.197V86.731z"/>
<path fill="#132F61" d="M210.694,65.271h-7.59v11.93c0,0.468-0.38,0.848-0.848,0.848h-24.302c-0.469,0-0.849-0.38-0.849-0.848
	v-8.114c0-2.108-1.708-3.815-3.816-3.815h-4.012c-0.469,0-0.849,0.379-0.849,0.849v32.053c0,0.468,0.38,0.848,0.849,0.848h6.979
	c0.469,0,0.849-0.38,0.849-0.849V87.189c0-0.47,0.38-0.85,0.849-0.85h24.302c0.468,0,0.848,0.38,0.848,0.85v8.016
	c0,2.107,1.709,3.815,3.817,3.815h3.773c0.469,0,0.849-0.38,0.849-0.849V66.12C211.543,65.65,211.163,65.271,210.694,65.271"/>
<path fill="#132F61" d="M260.696,65.271h-7.59v11.93c0,0.468-0.38,0.848-0.849,0.848h-24.302c-0.469,0-0.849-0.38-0.849-0.848
	v-8.114c0-2.108-1.709-3.815-3.816-3.815h-4.012c-0.469,0-0.849,0.379-0.849,0.849v32.053c0,0.468,0.38,0.848,0.849,0.848h6.979
	c0.469,0,0.849-0.38,0.849-0.849V87.189c0-0.47,0.38-0.85,0.849-0.85h24.302c0.469,0,0.849,0.38,0.849,0.85v8.016
	c0,2.107,1.709,3.815,3.816,3.815h3.773c0.469,0,0.849-0.38,0.849-0.849V66.12C261.545,65.65,261.165,65.271,260.696,65.271"/>
<path fill="#132F61" d="M460.652,65.271h-27.734c-8.025,0-14.531,6.506-14.531,14.53v19.219h2.201c6.684,0,6.504-6.415,6.504-6.415
	V80.123c0-3.758,3.047-6.805,6.805-6.805h18.05c0.469,0,0.849,0.379,0.849,0.849v24.854h4.508c2.318,0,4.197-1.879,4.197-4.197
	V66.12C461.5,65.65,461.12,65.271,460.652,65.271"/>
<path fill="#132F61" d="M550.707,91.412h-19.262c-3.153,0-5.71-2.556-5.71-5.709v-7.439c0-3.153,2.556-5.71,5.71-5.71h19.262
	c4.021,0,7.283-3.261,7.283-7.283h-28.707c-6.27,0-11.352,5.082-11.352,11.351V87.67c0,6.269,5.082,11.351,11.352,11.351h28.707
	v-0.325C557.99,94.674,554.729,91.412,550.707,91.412"/>
<path fill="#132F61" d="M354.524,65.271h-29.322c-3.809,0-6.896,3.086-6.896,6.896v26.854h5.091c1.996,0,3.614-1.617,3.614-3.614
	V74.167c0-0.47,0.38-0.849,0.849-0.849h24.006c0.469,0,0.849,0.379,0.849,0.849v21.239c0,1.997,1.618,3.614,3.614,3.614h5.091
	V72.167C361.42,68.357,358.333,65.271,354.524,65.271"/>
<path fill="#132F61" d="M400.265,65.271h-20.803c-6.359,0-11.514,5.154-11.514,11.512v10.726c0,6.358,5.154,11.513,11.514,11.513
	h20.803c6.358,0,11.513-5.155,11.513-11.514V76.783C411.777,70.426,406.623,65.271,400.265,65.271 M402.994,86.731
	c0,2.318-1.879,4.197-4.196,4.197h-17.87c-2.318,0-4.197-1.879-4.197-4.197v-9.17c0-2.317,1.879-4.198,4.197-4.198h17.87
	c2.317,0,4.196,1.879,4.196,4.197V86.731z"/>
<path fill="#132F61" d="M154.849,65.286l-6.139,0.017c-0.401,0-0.915,0.09-1.879,1.219l-20.849,24.257
	c-0.104,0.122-0.237,0.188-0.38,0.186c-0.301,0.003-0.546-0.291-0.546-0.648l0.006-19.343c0-4.711-3.138-5.701-5.766-5.701
	l-2.054,0.01c-0.378,0.003-0.685,0.367-0.688,0.816l-0.058,7.142l-0.008,22.278c0.001,1.89,1.291,3.432,2.884,3.432
	c0.024,0,3.661,0.071,4.517,0.072c0.909,0,3.65-0.067,3.686-0.067h0.053c1.437,0,2.659-1.46,3.736-2.75
	c0.123-0.146,0.244-0.292,0.363-0.428l19.549-22.938c0.094-0.111,0.224-0.175,0.358-0.176c0.285,0.001,0.513,0.275,0.514,0.615
	l-0.006,19.264h-0.014v2.364c0,2.272,1.843,4.116,4.117,4.116h3.413c0.526,0,0.952-0.427,0.952-0.952v-2.256l0.005-23.444
	C160.618,68.202,158.247,65.286,154.849,65.286"/>
<path fill="#132F61" d="M507.007,65.286l-6.139,0.017c-0.401,0-0.914,0.09-1.88,1.219l-20.848,24.257
	c-0.104,0.122-0.238,0.188-0.381,0.186c-0.301,0.003-0.546-0.291-0.546-0.648l0.007-19.343c0-4.711-3.139-5.701-5.767-5.701
	l-2.055,0.01c-0.378,0.003-0.684,0.367-0.688,0.816l-0.058,7.142l-0.009,22.278c0.001,1.89,1.291,3.432,2.886,3.432
	c0.023,0,3.659,0.071,4.516,0.072c0.91,0,3.65-0.067,3.687-0.067h0.053c1.437,0,2.659-1.46,3.735-2.75
	c0.123-0.146,0.244-0.292,0.363-0.428l19.55-22.938c0.093-0.111,0.224-0.175,0.357-0.176c0.285,0.001,0.513,0.275,0.515,0.615
	l-0.006,19.264h-0.015v2.364c0,2.272,1.843,4.116,4.116,4.116h3.413c0.526,0,0.953-0.427,0.953-0.952v-2.256l0.004-23.444
	C512.775,68.202,510.406,65.286,507.007,65.286"/>
<path fill="#2183D4" d="M235.814,0l-49.031,0.016c-0.26,0.001-0.47,0.211-0.469,0.47c0.005,5.323,4.322,9.635,9.645,9.635
	l35.763-0.007c3.219-0.002,5.831,2.608,5.831,5.828v4.245l-37.525,0.003c-0.753,0-1.362,0.61-1.362,1.362v0.001
	c0,3.822,3.098,6.922,6.921,6.922l31.966,0.003v4.623c0,3.007-2.439,5.446-5.447,5.446l-36.204,0.009
	c-4.874-0.002-8.841,3.843-8.837,8.568l0.002,1.279c-0.002,0.147,0.118,0.26,0.267,0.261h48.375c8.015,0,14.512-6.497,14.512-14.511
	V14.407C250.221,6.45,243.771,0,235.814,0"/>
<path fill="#2183D4" d="M164.492,0l-3.065,0.003l-13.245,0.005L144.22,0.01l-12.34,0.003c-7.305,0.005-15.792,5.968-15.792,13.659
	l0.007,19.781l0.001,1.788c0.004,7.687,8.496,13.646,15.801,13.648l16.304-0.012h5.26l11.052-0.005
	c7.301,0,15.785-5.971,15.782-13.653l-0.007-21.569C180.288,5.962,171.798-0.002,164.492,0 M161.943,38.72l-13.751,0.005
	l-13.737,0.007c-0.365,0.002-0.738-0.038-1.108-0.11c-0.079-0.02-0.157-0.044-0.228-0.068c-0.037-0.014-0.075-0.024-0.113-0.034
	c-0.258-0.072-0.482-0.131-0.7-0.223c-0.089-0.033-0.173-0.08-0.259-0.127l-0.114-0.063l-0.077-0.039
	c-0.164-0.081-0.334-0.168-0.49-0.267c-0.087-0.064-0.178-0.134-0.264-0.206l-0.104-0.085l-0.089-0.073
	c-0.125-0.093-0.25-0.19-0.365-0.299c-0.092-0.091-0.176-0.19-0.257-0.29l-0.078-0.09l-0.067-0.078
	c-0.098-0.114-0.194-0.222-0.279-0.342c-0.084-0.115-0.153-0.243-0.223-0.365l-0.056-0.095l-0.045-0.077
	c-0.072-0.127-0.142-0.252-0.2-0.38c-0.065-0.142-0.118-0.29-0.167-0.437l-0.027-0.076l-0.015-0.053
	c-0.057-0.152-0.104-0.301-0.141-0.46c-0.034-0.142-0.056-0.295-0.077-0.442l-0.01-0.086l-0.015-0.099
	c-0.031-0.207-0.064-0.424-0.064-0.662l-0.005-17.311c-0.001-0.368,0.048-0.709,0.096-0.969c0.024-0.142,0.058-0.279,0.096-0.416
	c0.062-0.233,0.121-0.426,0.19-0.611c0.055-0.142,0.118-0.285,0.185-0.42c0.087-0.18,0.178-0.349,0.283-0.52
	c0.084-0.127,0.164-0.249,0.25-0.372c0.119-0.163,0.248-0.313,0.379-0.457c0.097-0.11,0.196-0.218,0.3-0.319
	c0.155-0.138,0.312-0.262,0.473-0.383l0.07-0.058c0.089-0.071,0.18-0.135,0.279-0.197c0.175-0.119,0.363-0.211,0.553-0.305
	l0.099-0.051c0.091-0.047,0.182-0.095,0.273-0.127c0.219-0.089,0.431-0.154,0.678-0.214l0.103-0.033
	c0.078-0.024,0.153-0.046,0.236-0.065c0.37-0.074,0.729-0.111,1.083-0.108l13.743-0.005l13.24-0.005l0.502-0.003
	c3.099-0.002,5.623,2.517,5.627,5.621l0.005,17.316C167.563,36.196,165.044,38.717,161.943,38.72"/>
<path fill="#2183D4" d="M317.599,23.119c1.804-2.352,2.879-5.293,2.879-8.486c0-8.015-6.497-14.512-14.512-14.512h-48.375
	c-0.149,0.001-0.27,0.114-0.268,0.261l-0.002,1.279c-0.004,4.725,3.963,8.57,8.838,8.568l37.361,0.01
	c3.008,0,5.446,2.438,5.446,5.446c0,2.5-1.987,4.532-4.468,4.614L270.3,20.307c-0.752,0-1.362,0.61-1.362,1.363
	c0,3.823,3.1,6.922,6.922,6.922h30.655c0.072,0,0.143-0.004,0.215-0.006c2.521,0.038,4.552,2.09,4.552,4.619
	c0,3.008-2.438,5.446-5.446,5.446l-39.676,0.01c-4.875-0.002-8.842,3.843-8.838,8.567l0.002,1.28
	c-0.002,0.147,0.118,0.259,0.268,0.26h51.042c8.015,0,14.512-6.496,14.512-14.511C323.145,29.707,320.967,25.667,317.599,23.119"/>
</svg>
