<?xml version="1.0" encoding="utf-8"?>
<!-- Generator: Adobe Illustrator 26.3.1, SVG Export Plug-In . SVG Version: 6.00 Build 0)  -->
<svg version="1.1" id="Слой_1" xmlns="http://www.w3.org/2000/svg" xmlns:xlink="http://www.w3.org/1999/xlink" x="0px" y="0px"
	 viewBox="0 0 2000 2000" style="enable-background:new 0 0 2000 2000;" xml:space="preserve">
<style type="text/css">
	.st0{fill:#FFFFFF;stroke:#FFFFFF;stroke-width:0.4888;}
	.st1{fill:#FFFFFF;}
</style>
<polyline class="st0" points="954.46,1012.3 1073.57,1012.3 1088.4,1004.59 1207.69,1004.59 "/>
<path class="st1" d="M972.44,949.52v-5.46c0.65,0.06,1.51,0.06,1.97,0.06c3.61,0,5.53-2.33,5.53-4.9c0-2.48-1.4-4.86-5.85-4.86
	c-1.06,0-3.45,0.04-4.3,0.04v15.11H972.44L972.44,949.52z M974.34,936.84c1.81,0,2.79,0.78,2.79,2.35c0,1.68-1.23,2.44-2.81,2.44
	c-0.6,0-1.25-0.04-1.88-0.11v-4.64C973.16,936.86,973.8,936.84,974.34,936.84L974.34,936.84z M981.88,941.96
	c0,4.71,3.37,7.79,7.86,7.79c4.49,0,7.88-3.26,7.88-7.79c0-4.71-3.39-7.79-7.88-7.79C985.1,934.16,981.88,937.58,981.88,941.96
	L981.88,941.96z M984.69,941.96c0-3.13,2.16-5.31,5.05-5.31c2.85,0,5.07,2.18,5.07,5.31c0,2.98-1.9,5.31-5.07,5.31
	C986.91,947.27,984.69,944.98,984.69,941.96L984.69,941.96z M1011.18,946.06c-1.04,0.8-2.31,1.21-3.59,1.21
	c-3.09,0-5.22-2.16-5.22-5.31c0-3.28,2.12-5.31,4.92-5.31c1.51,0,2.51,0.41,3.41,1.01l1.19-1.96c-0.99-0.91-2.63-1.53-4.6-1.53
	c-4.99,0-7.73,3.45-7.73,7.79c0,4.71,3.17,7.79,7.79,7.79c1.97,0,3.89-0.69,4.84-1.71L1011.18,946.06L1011.18,946.06z
	 M1025.32,946.06c-1.04,0.8-2.31,1.21-3.58,1.21c-3.09,0-5.22-2.16-5.22-5.31c0-3.28,2.12-5.31,4.92-5.31
	c1.51,0,2.51,0.41,3.41,1.01l1.19-1.96c-0.99-0.91-2.63-1.53-4.6-1.53c-4.99,0-7.73,3.45-7.73,7.79c0,4.71,3.17,7.79,7.79,7.79
	c1.97,0,3.89-0.69,4.84-1.71L1025.32,946.06L1025.32,946.06z M1031.3,949.52l7.92-10.73v10.73h2.66V934.4h-2.33l-7.92,10.75V934.4
	h-2.66v15.11H1031.3L1031.3,949.52z M1048.4,949.52l7.92-10.73v10.73h2.66V934.4h-2.33l-7.92,10.75V934.4h-2.66v15.11H1048.4
	L1048.4,949.52z M1048.47,930.73c0.15,1.84,1.73,3.09,4.32,3.09c2.38,0,4.15-1.23,4.21-3.09h-2.48c-0.09,0.93-0.76,1.25-1.73,1.25
	c-1.08,0-1.66-0.41-1.84-1.25H1048.47L1048.47,930.73z M1073.67,946.06c-1.04,0.8-2.31,1.21-3.58,1.21c-3.09,0-5.22-2.16-5.22-5.31
	c0-3.28,2.12-5.31,4.92-5.31c1.51,0,2.51,0.41,3.41,1.01l1.19-1.96c-0.99-0.91-2.63-1.53-4.6-1.53c-4.99,0-7.73,3.45-7.73,7.79
	c0,4.71,3.17,7.79,7.8,7.79c1.96,0,3.89-0.69,4.84-1.71L1073.67,946.06L1073.67,946.06z M1077.32,949.52h2.66v-7.79l6.18,7.79h3.37
	l-6.61-8.08l6.22-7.04h-3.2l-5.96,7.17v-7.17h-2.66V949.52L1077.32,949.52z M1094.16,949.52l7.92-10.73v10.73h2.66V934.4h-2.33
	l-7.92,10.75V934.4h-2.66v15.11H1094.16L1094.16,949.52z M1111.26,949.52l7.92-10.73v10.73h2.66V934.4h-2.33l-7.92,10.75V934.4
	h-2.66v15.11H1111.26L1111.26,949.52z M1111.32,930.73c0.15,1.84,1.73,3.09,4.32,3.09c2.38,0,4.15-1.23,4.21-3.09h-2.48
	c-0.09,0.93-0.76,1.25-1.73,1.25c-1.08,0-1.66-0.41-1.84-1.25H1111.32L1111.32,930.73z"/>
<path class="st1" d="M1118.37,978.77h2.66v-15.11h-2.33l-7.92,10.75v-10.75h-2.66v15.11h2.33l7.92-10.73V978.77L1118.37,978.77z
	 M1119.04,959.98h-2.48c-0.09,0.93-0.76,1.25-1.73,1.25c-1.08,0-1.66-0.41-1.83-1.25h-2.48c0.15,1.84,1.73,3.09,4.32,3.09
	C1117.2,963.07,1118.97,961.84,1119.04,959.98L1119.04,959.98z M1101.29,978.77h2.63v-15.11h-2.63V978.77L1101.29,978.77z
	 M1099.32,973.61c0-2.96-1.79-4.88-5.53-4.88c-0.43,0-1.02,0.02-1.69,0.11v-5.18h-2.66v15.11c0.89,0,2.33,0.04,3.76,0.04
	C1097.08,978.81,1099.32,976.8,1099.32,973.61L1099.32,973.61z M1096.52,973.67c0,1.77-1.04,2.65-2.98,2.65
	c-0.52,0-0.95-0.04-1.43-0.06v-4.95c0.6-0.07,1.06-0.11,1.47-0.11C1095.44,971.21,1096.52,972.05,1096.52,973.67L1096.52,973.67z
	 M1082.63,978.77h2.63v-15.11h-2.63v6.17h-6.91v-6.17h-2.66v15.11h2.66v-6.46h6.91V978.77L1082.63,978.77z M1065.86,966.13h4.9
	v-2.48h-12.46v2.48h4.9v12.63h2.66V966.13L1065.86,966.13z M1057.11,968.47c0-2.48-1.4-4.86-5.85-4.86c-1.06,0-3.46,0.04-4.3,0.04
	v15.11h2.66v-5.46c0.65,0.06,1.51,0.06,1.96,0.06C1055.19,973.37,1057.11,971.04,1057.11,968.47L1057.11,968.47z M1054.31,968.44
	c0,1.68-1.23,2.44-2.81,2.44c-0.6,0-1.25-0.04-1.88-0.11v-4.64c0.71-0.02,1.36-0.04,1.9-0.04
	C1053.33,966.09,1054.31,966.87,1054.31,968.44L1054.31,968.44z M1043.9,971.21c0-4.71-3.39-7.8-7.88-7.8
	c-4.64,0-7.86,3.41-7.86,7.8c0,4.71,3.37,7.79,7.86,7.79C1040.51,979,1043.9,975.74,1043.9,971.21L1043.9,971.21z M1041.09,971.21
	c0,2.98-1.9,5.31-5.07,5.31c-2.83,0-5.05-2.29-5.05-5.31c0-3.13,2.16-5.31,5.05-5.31C1038.87,965.9,1041.09,968.08,1041.09,971.21
	L1041.09,971.21z M1022.44,978.77h2.66v-15.11h-12.05v15.11h2.66v-12.63h6.74V978.77L1022.44,978.77z M1000.59,971.21
	c0-3.28,2.12-5.31,4.92-5.31c1.51,0,2.51,0.41,3.41,1.02l1.19-1.97c-0.99-0.91-2.63-1.53-4.6-1.53c-4.99,0-7.73,3.45-7.73,7.8
	c0,4.71,3.17,7.79,7.79,7.79c1.97,0,3.89-0.69,4.84-1.71l-1.01-1.99c-1.04,0.8-2.31,1.21-3.59,1.21
	C1002.72,976.52,1000.59,974.36,1000.59,971.21L1000.59,971.21z M996.59,978.77l-6.61-8.08l6.22-7.04h-3.2l-5.96,7.17v-7.17h-2.66
	v15.11h2.66v-7.79l6.17,7.79H996.59L996.59,978.77z M981.33,971.19c0-4.71-3.15-7.77-7.6-7.77c-2.31,0-4.15,0.76-5.2,1.66l1.04,1.99
	c1.06-0.8,2.33-1.17,3.54-1.17c2.85,0,4.92,1.4,5.44,3.93h-6.74v2.48h6.8c-0.45,2.79-2.63,4.21-5.23,4.21
	c-1.58,0-2.94-0.58-3.89-1.32l-1.14,2.22c1.06,0.91,2.98,1.58,5.07,1.58C978.26,979,981.33,975.92,981.33,971.19L981.33,971.19z"/>
<path class="st1" d="M1201.33,968.47c0-2.48-1.4-4.86-5.85-4.86c-1.06,0-3.46,0.04-4.3,0.04v15.11h2.66v-5.46
	c0.65,0.06,1.51,0.06,1.96,0.06C1199.4,973.37,1201.33,971.04,1201.33,968.47L1201.33,968.47z M1198.52,968.44
	c0,1.68-1.23,2.44-2.81,2.44c-0.6,0-1.25-0.04-1.88-0.11v-4.64c0.71-0.02,1.36-0.04,1.9-0.04
	C1197.55,966.09,1198.52,966.87,1198.52,968.44L1198.52,968.44z M1183.97,966.13h4.9v-2.48h-12.46v2.48h4.9v12.63h2.66V966.13
	L1183.97,966.13z M1171.46,978.77h2.64v-15.11h-2.64v6.17h-6.91v-6.17h-2.66v15.11h2.66v-6.46h6.91V978.77L1171.46,978.77z
	 M1149.48,978.77h8.96v-2.48h-6.3v-3.91h5.44v-2.48h-5.44v-3.76h6.09v-2.48h-8.74V978.77L1149.48,978.77z M1144.37,981.46h2.48
	v-5.18h-2.05v-12.63h-2.66v12.63h-6.63v-12.63h-2.66v15.11h11.51V981.46L1144.37,981.46z"/>
<polygon class="st1" points="865.54,919.01 856.66,922.32 855.07,919 865.54,919.01 "/>
<polygon class="st1" points="855.07,919 856.66,922.32 849.05,925.13 855.07,919 "/>
<polygon class="st1" points="892.46,919.78 899.75,929.98 872.38,927.51 892.46,919.78 "/>
<polygon class="st1" points="937.34,919.01 926.47,923.29 920.65,919.01 937.34,919.01 "/>
<polygon class="st1" points="849.05,936.26 840.39,946.63 829.55,945.47 849.05,936.26 "/>
<polygon class="st1" points="840.39,946.63 829.55,959.41 829.55,945.47 840.39,946.63 "/>
<polygon class="st1" points="937.51,919.01 933.08,928.13 926.47,923.29 937.34,919.01 937.51,919.01 "/>
<polygon class="st1" points="808.15,967.7 807.25,978.07 791.04,986.85 808.15,967.7 "/>
<polygon class="st1" points="807.25,978.07 806.03,989.82 791,986.89 807.25,978.07 "/>
<polygon class="st1" points="905.49,939.4 920.83,958.03 895.28,955.33 905.49,939.4 "/>
<polygon class="st1" points="920.83,958.03 883.59,973.55 895.28,955.33 920.83,958.03 "/>
<polygon class="st1" points="865.4,980.26 829.4,995.35 829.4,972.12 865.4,980.26 "/>
<polygon class="st1" points="909.44,987.08 898.92,1008.61 893.33,993.76 909.44,987.08 "/>
<polygon class="st1" points="893.33,993.76 898.92,1008.61 871.76,1003.09 893.33,993.76 "/>
<polygon class="st1" points="854.46,948.61 875.62,940.35 881.43,951.37 854.46,948.61 "/>
<polygon class="st1" points="854.46,948.61 881.43,951.37 857.81,960.89 854.46,948.61 "/>
</svg>
