<svg width="173" height="19" viewBox="0 0 173 19" fill="none" xmlns="http://www.w3.org/2000/svg">
<path d="M37.5234 18V0.9375H43.5C45.5703 0.9375 47.1406 1.33594 48.2109 2.13281C49.2812 2.92188 49.8164 4.08203 49.8164 5.61328C49.8164 6.44922 49.6016 7.1875 49.1719 7.82812C48.7422 8.46094 48.1445 8.92578 47.3789 9.22266C48.2539 9.44141 48.9414 9.88281 49.4414 10.5469C49.9492 11.2109 50.2031 12.0234 50.2031 12.9844C50.2031 14.625 49.6797 15.8672 48.6328 16.7109C47.5859 17.5547 46.0938 17.9844 44.1562 18H37.5234ZM41.0391 10.5703V15.1758H44.0508C44.8789 15.1758 45.5234 14.9805 45.9844 14.5898C46.4531 14.1914 46.6875 13.6445 46.6875 12.9492C46.6875 11.3867 45.8789 10.5938 44.2617 10.5703H41.0391ZM41.0391 8.08594H43.6406C45.4141 8.05469 46.3008 7.34766 46.3008 5.96484C46.3008 5.19141 46.0742 4.63672 45.6211 4.30078C45.1758 3.95703 44.4688 3.78516 43.5 3.78516H41.0391V8.08594Z" fill="#69C5A5"/>
<path d="M66.7383 18H63.2227V10.6875H56.3672V18H52.8516V0.9375H56.3672V7.85156H63.2227V0.9375H66.7383V18Z" fill="#69C5A5"/>
<path d="M69.7734 16.3359C69.7734 15.7969 69.9531 15.3594 70.3125 15.0234C70.6797 14.6875 71.1367 14.5195 71.6836 14.5195C72.2383 14.5195 72.6953 14.6875 73.0547 15.0234C73.4219 15.3594 73.6055 15.7969 73.6055 16.3359C73.6055 16.8672 73.4258 17.3008 73.0664 17.6367C72.707 17.9648 72.2461 18.1289 71.6836 18.1289C71.1289 18.1289 70.6719 17.9648 70.3125 17.6367C69.9531 17.3008 69.7734 16.8672 69.7734 16.3359Z" fill="#69C5A5"/>
<path d="M6 0H12L6 19H0L6 0Z" fill="#C4C4C4"/>
<path d="M15 0H21L15 19H9L15 0Z" fill="#C4C4C4"/>
<path d="M24 0H30L24 19H18L24 0Z" fill="#C4C4C4"/>
<path d="M82.1172 0.9375L86.5 13.3125L90.8594 0.9375H95.4766V18H91.9492V13.3359L92.3008 5.28516L87.6953 18H85.2812L80.6875 5.29688L81.0391 13.3359V18H77.5234V0.9375H82.1172Z" fill="#3D3D3D"/>
<path d="M108.391 14.4844H102.227L101.055 18H97.3164L103.668 0.9375H106.926L113.312 18H109.574L108.391 14.4844ZM103.176 11.6367H107.441L105.297 5.25L103.176 11.6367Z" fill="#3D3D3D"/>
<path d="M121.223 11.7539H118.422V18H114.906V0.9375H121.246C123.262 0.9375 124.816 1.38672 125.91 2.28516C127.004 3.18359 127.551 4.45312 127.551 6.09375C127.551 7.25781 127.297 8.23047 126.789 9.01172C126.289 9.78516 125.527 10.4023 124.504 10.8633L128.195 17.8359V18H124.422L121.223 11.7539ZM118.422 8.90625H121.258C122.141 8.90625 122.824 8.68359 123.309 8.23828C123.793 7.78516 124.035 7.16406 124.035 6.375C124.035 5.57031 123.805 4.9375 123.344 4.47656C122.891 4.01562 122.191 3.78516 121.246 3.78516H118.422V8.90625Z" fill="#3D3D3D"/>
<path d="M135.578 11.1562L133.75 13.125V18H130.234V0.9375H133.75V8.67188L135.297 6.55078L139.645 0.9375H143.969L137.91 8.51953L144.145 18H139.961L135.578 11.1562Z" fill="#3D3D3D"/>
<path d="M155.734 10.6055H148.984V15.1758H156.906V18H145.469V0.9375H156.883V3.78516H148.984V7.85156H155.734V10.6055Z" fill="#3D3D3D"/>
<path d="M172.047 3.78516H166.82V18H163.305V3.78516H158.148V0.9375H172.047V3.78516Z" fill="#3D3D3D"/>
</svg>
