<svg width="141" height="141" viewBox="0 0 141 141" fill="none" xmlns="http://www.w3.org/2000/svg">
<circle cx="70.5" cy="70.5" r="69.5" fill="#ED1C24" stroke="white" stroke-width="2"/>
<g clip-path="url(#clip0_576_7870)">
<path d="M16.0902 60.0673H127.873L119.093 87.8967H16.0902V60.0673Z" fill="#ED1C24"/>
<path d="M16.0902 60.0673H127.873L119.093 87.8967H16.0902V60.0673Z" stroke="#ED1C24" stroke-width="1.27446" stroke-miterlimit="1.4142"/>
<path d="M36.0029 79.7609C35.812 77.7593 35.8756 78.5987 35.6848 77.1136C19.1432 81.5689 27.7321 61.4878 39.1203 66.5242C39.2475 66.4596 38.9931 66.4596 41.2198 64.2643C23.215 56.7097 11.1905 85.5076 36.0029 79.7609Z" fill="white"/>
<path d="M36.3209 75.0473C36.7027 71.3023 40.9017 68.1384 44.5917 68.1384C49.8087 68.1384 51.9082 70.5921 51.3992 73.5623C50.6994 77.501 47.1366 80.4712 42.4286 80.4066C38.7385 80.4066 36.0028 78.6632 36.3209 75.0473Z" fill="white"/>
<path d="M40.7108 74.0142C41.2834 71.6252 43.6374 70.0109 45.228 70.2046C47.073 70.2046 47.7728 71.7543 46.8821 74.8536C46.3731 76.9198 44.1464 78.7278 42.2378 78.3404C40.3927 77.501 40.1382 76.6616 40.7108 74.0142Z" fill="#ED1C24"/>
<path d="M70.1675 68.1385L69.8494 68.8487C58.3339 62.9083 49.5542 86.1533 66.5411 79.1152C66.6047 79.3735 62.7238 85.3139 55.1528 82.0209L53.944 84.4745C70.3583 87.8321 70.3583 78.5987 74.112 68.203C71.0582 68.203 70.1675 68.1385 70.1675 68.1385Z" fill="white"/>
<path d="M61.2605 75.9513C61.3877 73.6914 63.9962 70.8504 65.2686 70.5921C66.5411 70.3338 68.1952 69.9464 69.0859 70.9795C68.0044 76.2096 65.205 78.1467 63.2328 78.0821C61.8967 78.0821 61.3877 77.6947 61.2605 75.9513Z" fill="#ED1C24"/>
<path d="M75.9571 71.0441L76.975 68.3322C88.3632 66.1368 91.2898 68.5904 87.218 76.2742C86.5182 78.0821 86.391 78.5987 86.5818 80.3421C84.037 80.3421 82.192 80.3421 82.192 80.3421V79.4381C82.192 79.4381 72.2034 83.3768 72.9032 76.7908C73.5394 70.3338 82.8282 72.5292 84.9277 71.8835C85.1822 68.4613 75.9571 71.0441 75.9571 71.0441Z" fill="white"/>
<path d="M83.7189 74.4017C73.285 73.4331 76.2116 80.7295 82.9554 76.9844C83.528 75.3702 83.528 74.8537 83.7189 74.4017Z" fill="#ED1C24"/>
<path d="M90.9081 69.8172H89.1267L89.8266 67.8156H91.7352L92.8168 64.91L97.2067 64.1351L95.9342 67.8156H100.26L99.497 69.8172H95.1708C95.1708 69.8172 92.6259 75.9513 92.6259 76.145C92.6259 76.3387 91.2899 79.3089 95.6161 77.5656C95.6797 79.2444 95.7434 79.6318 95.7434 79.6318C95.7434 79.6318 85.5003 83.1831 88.6178 75.4348C90.7173 70.4629 90.9081 69.8172 90.9081 69.8172Z" fill="white"/>
<path d="M102.614 74.3371C106.05 74.3371 109.422 74.2725 111.839 74.2725C112.158 73.2394 114.193 66.3305 105.414 67.3636C96.0613 68.5259 94.4072 85.3785 110.822 79.0507C109.931 77.2427 109.804 76.9845 109.804 76.9845C109.804 76.9845 102.614 80.6003 102.614 74.3371Z" fill="white"/>
<path d="M108.404 72.1417C109.74 69.8172 105.605 67.299 103.378 72.1417H108.404Z" fill="#ED1C24"/>
<path d="M56.298 64.006H60.3062L54.3894 80.4712H50.4449L56.298 64.006Z" fill="white"/>
<path d="M115.911 66.0076C116.293 66.0076 116.611 66.0722 116.929 66.2659C117.247 66.4596 117.502 66.7179 117.693 67.0407C117.883 67.3636 117.947 67.751 117.947 68.0738C117.947 68.4613 117.883 68.7841 117.693 69.107C117.502 69.4298 117.247 69.6881 116.929 69.8818C116.611 70.0755 116.293 70.1401 115.911 70.1401C115.593 70.1401 115.211 70.0755 114.893 69.8818C114.575 69.6881 114.321 69.4298 114.13 69.107C113.939 68.7841 113.875 68.3967 113.875 68.0738C113.875 67.751 113.939 67.3636 114.13 67.0407C114.321 66.7179 114.575 66.4596 114.893 66.2659C115.211 66.1368 115.53 66.0076 115.911 66.0076ZM115.911 66.395C115.657 66.395 115.339 66.4596 115.084 66.6533C114.83 66.7825 114.639 66.9762 114.448 67.299C114.321 67.5573 114.193 67.8801 114.193 68.1384C114.193 68.4613 114.257 68.7195 114.448 69.0424C114.575 69.3007 114.83 69.5589 115.084 69.6881C115.339 69.8818 115.657 69.9464 115.911 69.9464C116.166 69.9464 116.484 69.8818 116.802 69.6881C117.056 69.5589 117.247 69.3007 117.438 69.0424C117.565 68.7841 117.693 68.4613 117.693 68.1384C117.693 67.8156 117.629 67.5573 117.438 67.299C117.311 66.9762 117.056 66.7825 116.802 66.6533C116.42 66.4596 116.166 66.395 115.911 66.395ZM114.957 69.3007V67.0407H115.72C115.975 67.0407 116.166 67.0407 116.293 67.1053C116.42 67.1699 116.484 67.2344 116.547 67.299C116.611 67.4282 116.675 67.4927 116.675 67.6219C116.675 67.8156 116.611 67.9447 116.484 68.0738C116.357 68.203 116.229 68.2676 116.038 68.2676C116.102 68.2676 116.166 68.3321 116.229 68.3967C116.293 68.4613 116.42 68.655 116.547 68.8487L116.802 69.3007H116.357L116.166 68.9133C116.038 68.655 115.848 68.4613 115.784 68.3967C115.72 68.3321 115.657 68.3321 115.466 68.3321H115.275V69.3007H114.957ZM115.339 68.0093H115.784C116.038 68.0093 116.166 67.9447 116.229 67.9447C116.293 67.8801 116.357 67.751 116.357 67.6864C116.357 67.6219 116.357 67.5573 116.293 67.4927C116.229 67.4282 116.229 67.4282 116.166 67.3636C116.102 67.299 115.975 67.299 115.784 67.299H115.402L115.339 68.0093Z" fill="white"/>
</g>
<defs>
<clipPath id="clip0_576_7870">
<rect width="112" height="28" fill="white" transform="translate(16 60)"/>
</clipPath>
</defs>
</svg>
