<svg xmlns="http://www.w3.org/2000/svg" width="558" height="99"><path fill="#2183D4" d="M0 68.223v4.884c0 .917 1.104 1.375 1.741.716 13.238-13.705 41.382-34.555 92.134-38.015 1.591-.108 2.84-1.415 2.84-3.009V2.863A2.589 2.589 0 0093.841.281C82.399 1.538 39.14 8.818 6.989 48.548 2.483 54.117 0 61.059 0 68.223"/><path fill="#132F61" d="M0 81.098v15.721c0 1.217.986 2.202 2.203 2.202h92.31a2.202 2.202 0 002.202-2.202V54.961c0-1.6-1.284-2.895-2.884-2.895-12.108-.004-59.713 1.586-92.157 25.656A4.203 4.203 0 000 81.098m300.087-15.827h-20.803c-6.359 0-11.514 5.154-11.514 11.512v10.726c0 6.358 5.154 11.513 11.514 11.513h20.803c6.358 0 11.513-5.155 11.513-11.514V76.783c0-6.357-5.155-11.512-11.513-11.512m2.729 21.46a4.197 4.197 0 01-4.196 4.197h-17.87a4.197 4.197 0 01-4.197-4.197v-9.17a4.198 4.198 0 014.197-4.198h17.87a4.197 4.197 0 014.196 4.197v9.171zm-92.122-21.46h-7.59v11.93c0 .468-.38.848-.848.848h-24.302a.849.849 0 01-.849-.848v-8.114a3.815 3.815 0 00-3.816-3.815h-4.012a.848.848 0 00-.849.849v32.053c0 .468.38.848.849.848h6.979c.469 0 .849-.38.849-.849V87.189c0-.47.38-.85.849-.85h24.302c.468 0 .848.38.848.85v8.016a3.816 3.816 0 003.817 3.815h3.773c.469 0 .849-.38.849-.849V66.12c0-.47-.38-.849-.849-.849m50.002 0h-7.59v11.93c0 .468-.38.848-.849.848h-24.302a.849.849 0 01-.849-.848v-8.114a3.815 3.815 0 00-3.816-3.815h-4.012a.848.848 0 00-.849.849v32.053c0 .468.38.848.849.848h6.979c.469 0 .849-.38.849-.849V87.189c0-.47.38-.85.849-.85h24.302a.85.85 0 01.849.85v8.016a3.816 3.816 0 003.816 3.815h3.773c.469 0 .849-.38.849-.849V66.12a.847.847 0 00-.848-.849m199.956 0h-27.734c-8.025 0-14.531 6.506-14.531 14.53V99.02h2.201c6.684 0 6.504-6.415 6.504-6.415V80.123a6.805 6.805 0 016.805-6.805h18.05c.469 0 .849.379.849.849v24.854h4.508a4.197 4.197 0 004.197-4.197V66.12a.85.85 0 00-.849-.849m90.055 26.141h-19.262a5.71 5.71 0 01-5.71-5.709v-7.439a5.71 5.71 0 015.71-5.71h19.262a7.284 7.284 0 007.283-7.283h-28.707c-6.27 0-11.352 5.082-11.352 11.351V87.67c0 6.269 5.082 11.351 11.352 11.351h28.707v-.325a7.284 7.284 0 00-7.283-7.284M354.524 65.271h-29.322a6.895 6.895 0 00-6.896 6.896v26.854h5.091a3.613 3.613 0 003.614-3.614v-21.24c0-.47.38-.849.849-.849h24.006c.469 0 .849.379.849.849v21.239a3.613 3.613 0 003.614 3.614h5.091V72.167a6.895 6.895 0 00-6.896-6.896m45.741 0h-20.803c-6.359 0-11.514 5.154-11.514 11.512v10.726c0 6.358 5.154 11.513 11.514 11.513h20.803c6.358 0 11.513-5.155 11.513-11.514V76.783c-.001-6.357-5.155-11.512-11.513-11.512m2.729 21.46a4.197 4.197 0 01-4.196 4.197h-17.87a4.197 4.197 0 01-4.197-4.197v-9.17a4.198 4.198 0 014.197-4.198h17.87a4.197 4.197 0 014.196 4.197v9.171zM154.849 65.286l-6.139.017c-.401 0-.915.09-1.879 1.219l-20.849 24.257a.488.488 0 01-.38.186c-.301.003-.546-.291-.546-.648l.006-19.343c0-4.711-3.138-5.701-5.766-5.701l-2.054.01c-.378.003-.685.367-.688.816l-.058 7.142-.008 22.278c.001 1.89 1.291 3.432 2.884 3.432.024 0 3.661.071 4.517.072.909 0 3.65-.067 3.686-.067h.053c1.437 0 2.659-1.46 3.736-2.75.123-.146.244-.292.363-.428l19.549-22.938a.477.477 0 01.358-.176c.285.001.513.275.514.615l-.006 19.264h-.014v2.364a4.117 4.117 0 004.117 4.116h3.413a.952.952 0 00.952-.952v-2.256l.005-23.444c.003-4.169-2.368-7.085-5.766-7.085m352.158 0l-6.139.017c-.401 0-.914.09-1.88 1.219L478.14 90.779a.49.49 0 01-.381.186c-.301.003-.546-.291-.546-.648l.007-19.343c0-4.711-3.139-5.701-5.767-5.701l-2.055.01c-.378.003-.684.367-.688.816l-.058 7.142-.009 22.278c.001 1.89 1.291 3.432 2.886 3.432.023 0 3.659.071 4.516.072.91 0 3.65-.067 3.687-.067h.053c1.437 0 2.659-1.46 3.735-2.75.123-.146.244-.292.363-.428l19.55-22.938a.475.475 0 01.357-.176c.285.001.513.275.515.615l-.006 19.264h-.015v2.364a4.117 4.117 0 004.116 4.116h3.413a.953.953 0 00.953-.952v-2.256l.004-23.444c.005-4.169-2.364-7.085-5.763-7.085"/><path fill="#2183D4" d="M235.814 0l-49.031.016a.47.47 0 00-.469.47c.005 5.323 4.322 9.635 9.645 9.635l35.763-.007a5.828 5.828 0 015.831 5.828v4.245l-37.525.003c-.753 0-1.362.61-1.362 1.362v.001a6.922 6.922 0 006.921 6.922l31.966.003v4.623a5.447 5.447 0 01-5.447 5.446l-36.204.009c-4.874-.002-8.841 3.843-8.837 8.568l.002 1.279a.26.26 0 00.267.261h48.375c8.015 0 14.512-6.497 14.512-14.511V14.407C250.221 6.45 243.771 0 235.814 0m-71.322 0l-3.065.003-13.245.005-3.962.002-12.34.003c-7.305.005-15.792 5.968-15.792 13.659l.007 19.781.001 1.788c.004 7.687 8.496 13.646 15.801 13.648l16.304-.012h5.26l11.052-.005c7.301 0 15.785-5.971 15.782-13.653l-.007-21.569c0-7.688-8.49-13.652-15.796-13.65m-2.549 38.72l-13.751.005-13.737.007a5.663 5.663 0 01-1.108-.11 3.083 3.083 0 01-.228-.068c-.037-.014-.075-.024-.113-.034-.258-.072-.482-.131-.7-.223-.089-.033-.173-.08-.259-.127l-.114-.063-.077-.039a5.29 5.29 0 01-.49-.267 5.4 5.4 0 01-.264-.206l-.104-.085-.089-.073a3.969 3.969 0 01-.365-.299 3.527 3.527 0 01-.257-.29l-.078-.09-.067-.078c-.098-.114-.194-.222-.279-.342-.084-.115-.153-.243-.223-.365l-.056-.095-.045-.077a4.784 4.784 0 01-.2-.38 4.364 4.364 0 01-.167-.437l-.027-.076-.015-.053a3.648 3.648 0 01-.218-.902l-.01-.086-.015-.099c-.031-.207-.064-.424-.064-.662l-.005-17.311a5.298 5.298 0 01.192-1.385c.062-.233.121-.426.19-.611.055-.142.118-.285.185-.42.087-.18.178-.349.283-.52.084-.127.164-.249.25-.372.119-.163.248-.313.379-.457.097-.11.196-.218.3-.319.155-.138.312-.262.473-.383l.07-.058c.089-.071.18-.135.279-.197.175-.119.363-.211.553-.305l.099-.051c.091-.047.182-.095.273-.127.219-.089.431-.154.678-.214l.103-.033a3.25 3.25 0 01.236-.065c.37-.074.729-.111 1.083-.108l13.743-.005 13.24-.005.502-.003a5.631 5.631 0 015.627 5.621l.005 17.316a5.627 5.627 0 01-5.618 5.626m155.656-15.601a13.895 13.895 0 002.879-8.486c0-8.015-6.497-14.512-14.512-14.512h-48.375a.262.262 0 00-.268.261l-.002 1.279c-.004 4.725 3.963 8.57 8.838 8.568l37.361.01a5.446 5.446 0 015.446 5.446c0 2.5-1.987 4.532-4.468 4.614l-34.198.008c-.752 0-1.362.61-1.362 1.363 0 3.823 3.1 6.922 6.922 6.922h30.655c.072 0 .143-.004.215-.006a4.62 4.62 0 014.552 4.619 5.446 5.446 0 01-5.446 5.446l-39.676.01c-4.875-.002-8.842 3.843-8.838 8.567l.002 1.28c-.002.147.118.259.268.26h51.042c8.015 0 14.512-6.496 14.512-14.511a13.94 13.94 0 00-5.547-11.138"/></svg>