<svg width="89" height="11" fill="none" xmlns="http://www.w3.org/2000/svg"><path d="M20.75 10.51V1.363h3.05c1.056 0 1.857.213 2.403.64.546.423.819 1.045.819 1.866 0 .448-.11.844-.33 1.187-.218.34-.523.588-.914.748a1.81 1.81 0 011.052.71c.26.355.389.79.389 1.306 0 .88-.267 1.545-.801 1.997-.534.453-1.295.683-2.284.691H20.75zm1.794-3.983v2.469h1.536c.422 0 .75-.105.986-.315.24-.213.359-.506.359-.879 0-.837-.413-1.263-1.238-1.275h-1.643zm0-1.332h1.326c.905-.016 1.357-.395 1.357-1.137 0-.414-.115-.712-.346-.892-.227-.184-.588-.276-1.082-.276h-1.255v2.305zm13.108 5.315h-1.793V6.59h-3.497v3.92h-1.793V1.363h1.793V5.07h3.497V1.364h1.793v9.145zm1.548-.893c0-.289.092-.523.275-.703a.97.97 0 01.7-.27c.282 0 .515.09.699.27.187.18.28.414.28.703a.935.935 0 01-.274.698.977.977 0 01-.706.264.969.969 0 01-.699-.264.935.935 0 01-.275-.698zm5.93-8.253l2.235 6.633 2.224-6.633h2.355v9.145h-1.8v-2.5l.18-4.315-2.35 6.815h-1.23L42.4 3.7l.18 4.31v2.5h-1.794V1.363h2.344zm13.4 7.261h-3.143l-.598 1.884h-1.907l3.24-9.145h1.662l3.257 9.145h-1.906l-.604-1.884zm-2.659-1.526h2.176l-1.094-3.424L53.87 7.1zm9.205.062h-1.428v3.348h-1.794V1.364h3.234c1.028 0 1.821.24 2.38.722.557.482.836 1.162.836 2.041 0 .624-.13 1.146-.389 1.564-.255.415-.643.746-1.165.993l1.883 3.737v.088h-1.925l-1.632-3.348zm-1.428-1.526h1.446c.45 0 .799-.12 1.046-.358.247-.243.37-.576.37-.999 0-.431-.117-.77-.352-1.017-.231-.248-.588-.371-1.07-.371h-1.44v2.745zm8.75 1.206l-.932 1.055v2.613h-1.793V1.364h1.793v4.145l.789-1.137 2.218-3.008h2.205l-3.09 4.064 3.18 5.081h-2.134l-2.236-3.668zm10.282-.295h-3.444v2.45h4.041v1.513h-5.834V1.364h5.822V2.89h-4.028v2.18h3.443v1.476zM89 2.89h-2.666v7.62h-1.793V2.89h-2.63V1.364H89V2.89zM3.306 0H6.61L3.306 11H0L3.306 0zm4.958 0h3.305L8.264 11H4.958L8.264 0zm4.958 0h3.306l-3.306 11H9.917l3.305-11z" fill="#C4C4C4"/></svg>