<svg width="167" height="73" viewBox="0 0 167 73" fill="none" xmlns="http://www.w3.org/2000/svg">
<path d="M32.7305 48.7539H39.0938V55.6094H32.7305V67H24.1875V55.6094H2.07422L1.82812 50.4062L23.9062 15.8125H32.7305V48.7539ZM10.793 48.7539H24.1875V27.3789L23.5547 28.5039L10.793 48.7539Z" fill="#3D3D3D"/>
<path d="M156.73 48.7539H163.094V55.6094H156.73V67H148.188V55.6094H126.074L125.828 50.4062L147.906 15.8125H156.73V48.7539ZM134.793 48.7539H148.188V27.3789L147.555 28.5039L134.793 48.7539Z" fill="#3D3D3D"/>
<rect x="52" y="19" width="63" height="43" rx="12" stroke="#3D3D3D" stroke-width="8"/>
<path d="M68.5 47.5C72.8333 49.8333 84.9 53.1 98.5 47.5" stroke="#3D3D3D" stroke-width="4"/>
</svg>
