<svg width="472" height="144" viewBox="0 0 472 144" fill="none" xmlns="http://www.w3.org/2000/svg">
<path d="M213.051 38.7149C220.624 30.0061 231.42 25.2 245.441 24.2964C248.197 24.1188 250.44 26.378 250.44 29.1394V60.5918C250.44 63.645 247.727 65.9649 244.683 65.7326C243.018 65.6056 241.416 65.5421 239.878 65.5421C223.542 65.5421 215.375 73.8508 215.375 90.4682V136.799C215.375 139.561 213.136 141.799 210.375 141.799H172.635C169.873 141.799 167.635 139.561 167.635 136.799V31.2518C167.635 28.4904 169.873 26.2518 172.635 26.2518H208.051C210.812 26.2518 213.051 28.4904 213.051 31.2518V38.7149Z" fill="black"/>
<path d="M350.845 133.863C351.627 136.138 350.69 138.677 348.477 139.619C341.754 142.481 333.206 143.911 322.832 143.911C306.637 143.911 294.174 140.039 285.443 132.293C276.712 124.407 272.346 112.648 272.346 97.0166V65.5421H261.503C258.742 65.5421 256.503 63.3035 256.503 60.5421V31.2518C256.503 28.4904 258.742 26.2518 261.503 26.2518H272.346V5.26953C272.346 2.50811 274.585 0.269531 277.346 0.269531H315.086C317.847 0.269531 320.086 2.50811 320.086 5.26953V26.2518H338.745C341.506 26.2518 343.745 28.4904 343.745 31.2518V60.5421C343.745 63.3035 341.506 65.5421 338.745 65.5421H320.086V96.5941C320.086 100.115 321.001 102.861 322.832 104.832C324.663 106.804 327.057 107.79 330.014 107.79C331.702 107.79 333.306 107.609 334.825 107.249C338.035 106.486 341.846 107.698 342.918 110.817L350.845 133.863Z" fill="black"/>
<path d="M138.553 27.9423C143.252 25.04 149.478 26.477 151.767 31.5029C155.339 39.3417 157.621 47.7299 158.503 56.343C159.727 68.2818 158.231 80.3427 154.127 91.6204C150.022 102.898 143.417 113.1 134.806 121.459C126.195 129.819 115.802 136.12 104.408 139.888C93.0136 143.657 80.9137 144.796 69.0164 143.219C57.1191 141.642 45.7334 137.391 35.714 130.785C25.6947 124.179 17.3019 115.388 11.1656 105.074C6.73861 97.6335 3.56909 89.5389 1.76188 81.1166C0.603176 75.7167 4.74462 70.8506 10.2473 70.3789L35.3964 68.2228C40.899 67.751 45.6104 71.9335 47.6474 77.067C48.3145 78.7483 49.1159 80.379 50.0461 81.9426C52.6887 86.3843 56.3031 90.1698 60.618 93.0149C64.9329 95.86 69.8362 97.6907 74.9599 98.3697C80.0835 99.0487 85.2944 98.5583 90.2014 96.9353C95.1084 95.3123 99.5841 92.5989 103.292 88.9988C107.001 85.3987 109.845 81.0053 111.613 76.1485C113.381 71.2917 114.025 66.0976 113.498 60.9561C113.312 59.1462 112.983 57.3594 112.516 55.6118C111.091 50.2761 112.379 44.1093 117.078 41.2069L138.553 27.9423Z" fill="black"/>
<path d="M464.209 87.9035C464.209 118.836 439.134 143.911 408.201 143.911C377.269 143.911 352.193 118.836 352.193 87.9035C352.193 56.9711 377.269 31.8955 408.201 31.8955C439.134 31.8955 464.209 56.9711 464.209 87.9035ZM389.45 87.9035C389.45 98.2598 397.845 106.655 408.201 106.655C418.558 106.655 426.953 98.2598 426.953 87.9035C426.953 77.5472 418.558 69.1517 408.201 69.1517C397.845 69.1517 389.45 77.5472 389.45 87.9035Z" fill="black"/>
<path d="M32.1399 34.1885C35.0037 34.1885 37.2889 35.0708 38.9957 36.8354C40.7313 38.5999 41.5991 41.2613 41.5991 44.8194V56.3574C41.5991 57.462 40.7037 58.3574 39.5991 58.3574H33.7927C32.6881 58.3574 31.7927 57.462 31.7927 56.3574V46.5116C31.7927 43.7924 30.9104 42.4328 29.1459 42.4328C28.2202 42.4328 27.4681 42.78 26.8895 43.4742C26.3399 44.1685 26.0651 45.2677 26.0651 46.772V56.3574C26.0651 57.462 25.1696 58.3574 24.0651 58.3574H18.2587C17.1541 58.3574 16.2587 57.462 16.2587 56.3574V46.5116C16.2587 43.7924 15.3764 42.4328 13.6118 42.4328C12.6861 42.4328 11.934 42.78 11.3555 43.4742C10.8058 44.1685 10.531 45.2677 10.531 46.772V56.3574C10.531 57.462 9.6356 58.3574 8.53103 58.3574H2.72461C1.62004 58.3574 0.724609 57.462 0.724609 56.3574V36.6224C0.724609 35.5179 1.62004 34.6224 2.72461 34.6224H8.05372C9.15829 34.6224 10.0537 35.5178 10.0537 36.6224V36.8354C11.8183 35.0708 14.0602 34.1885 16.7794 34.1885C18.3704 34.1885 19.8023 34.4922 21.0751 35.0997C22.3479 35.6783 23.3893 36.575 24.1993 37.79C25.1539 36.6329 26.311 35.7506 27.6706 35.1431C29.0301 34.5067 30.5199 34.1885 32.1399 34.1885Z" fill="black"/>
<path d="M71.5306 46.4682C71.5306 46.5224 71.5245 46.6638 71.5123 46.8924C71.4562 47.947 70.5776 48.768 69.5215 48.768H54.9118C55.2589 49.6647 55.8374 50.359 56.6474 50.8507C57.4574 51.3136 58.4698 51.545 59.6848 51.545C60.7262 51.545 61.594 51.4148 62.2883 51.1545C62.5713 51.0526 62.8631 50.9219 63.1638 50.7625C64.0497 50.2927 65.1588 50.3412 65.8648 51.0532L68.4144 53.6245C69.1639 54.3802 69.2005 55.6098 68.3525 56.253C66.1216 57.9452 63.1311 58.7913 59.3811 58.7913C56.5172 58.7913 54.0005 58.2706 51.831 57.2292C49.6614 56.1589 47.9836 54.6836 46.7976 52.8033C45.6116 50.9231 45.0186 48.8113 45.0186 46.4682C45.0186 44.0962 45.5971 41.9845 46.7542 40.1331C47.9402 38.2528 49.5457 36.792 51.5706 35.7506C53.6245 34.7092 55.9242 34.1885 58.4698 34.1885C60.8708 34.1885 63.0548 34.6658 65.0219 35.6204C67.0179 36.575 68.5945 37.978 69.7516 39.8294C70.9376 41.6807 71.5306 43.8937 71.5306 46.4682ZM58.5566 40.8708C57.5442 40.8708 56.7053 41.1456 56.0399 41.6952C55.3746 42.2448 54.9407 43.0259 54.7382 44.0383H62.3751C62.1726 43.0548 61.7386 42.2882 61.0733 41.7386C60.408 41.16 59.5691 40.8708 58.5566 40.8708Z" fill="black"/>
<path d="M99.877 26.1611C100.429 26.1611 100.877 26.6088 100.877 27.1611V56.3574C100.877 57.462 99.9815 58.3574 98.877 58.3574H93.5005C92.4221 58.3574 91.5478 57.4832 91.5478 56.4048V56.4048C90.1304 57.9958 87.9608 58.7913 85.0392 58.7913C82.9564 58.7913 81.0327 58.2996 79.2681 57.316C77.5325 56.3036 76.144 54.8572 75.1026 52.9769C74.0901 51.0966 73.5839 48.9271 73.5839 46.4682C73.5839 44.0094 74.0901 41.8543 75.1026 40.0029C76.144 38.1226 77.5325 36.6907 79.2681 35.7072C81.0327 34.6947 82.9564 34.1885 85.0392 34.1885C87.6716 34.1885 89.682 34.8683 91.0705 36.2279V27.1611C91.0705 26.6088 91.5183 26.1611 92.0705 26.1611H99.877ZM87.3823 51.1545C88.5105 51.1545 89.4361 50.7495 90.1593 49.9395C90.8825 49.1006 91.2441 47.9435 91.2441 46.4682C91.2441 44.9929 90.8825 43.8503 90.1593 43.0403C89.4361 42.2303 88.5105 41.8254 87.3823 41.8254C86.2541 41.8254 85.3284 42.2303 84.6053 43.0403C83.8821 43.8503 83.5205 44.9929 83.5205 46.4682C83.5205 47.9435 83.8821 49.1006 84.6053 49.9395C85.3284 50.7495 86.2541 51.1545 87.3823 51.1545Z" fill="black"/>
<circle cx="464.209" cy="31.895" r="7.44577" fill="black"/>
</svg>
