<svg width="314" height="149" viewBox="0 0 314 149" fill="none" xmlns="http://www.w3.org/2000/svg">
<path d="M145.094 77.9253C150.162 72.0973 157.388 68.881 166.77 68.2763C168.614 68.1574 170.116 69.6694 170.116 71.5173V92.5656C170.116 94.6088 168.3 96.1614 166.263 96.0059C165.149 95.9209 164.077 95.8784 163.048 95.8784C152.115 95.8784 146.649 101.439 146.649 112.559V143.564C146.649 145.412 145.151 146.91 143.303 146.91H118.047C116.199 146.91 114.701 145.412 114.701 143.564V72.931C114.701 71.083 116.199 69.5849 118.047 69.5849H141.748C143.596 69.5849 145.094 71.083 145.094 72.931V77.9253Z" fill="black"/>
<path d="M237.308 141.6C237.831 143.122 237.204 144.821 235.723 145.451C231.224 147.367 225.503 148.324 218.561 148.324C207.723 148.324 199.383 145.732 193.54 140.549C187.697 135.272 184.775 127.402 184.775 116.942V97.1507H177.519C175.671 97.1507 174.173 95.6526 174.173 93.8047V77.1719C174.173 75.3239 175.671 73.8258 177.519 73.8258H184.775V55.5433C184.775 53.6953 186.274 52.1973 188.122 52.1973H213.377C215.225 52.1973 216.723 53.6953 216.723 55.5433V73.8258H229.21C231.058 73.8258 232.556 75.3239 232.556 77.1719V93.8047C232.556 95.6526 231.058 97.1507 229.21 97.1507H216.723V116.659C216.723 119.015 217.336 120.853 218.561 122.172C219.786 123.491 221.388 124.151 223.368 124.151C224.497 124.151 225.57 124.03 226.587 123.789C228.735 123.279 231.285 124.09 232.003 126.177L237.308 141.6Z" fill="black"/>
<path d="M95.2394 70.7162C98.3838 68.7739 102.55 69.7356 104.083 73.099C106.473 78.3449 108 83.9583 108.591 89.7223C109.409 97.7119 108.408 105.783 105.661 113.33C102.915 120.878 98.4943 127.705 92.7318 133.299C86.9692 138.893 80.0143 143.11 72.3891 145.632C64.764 148.154 56.6666 148.916 48.7047 147.861C40.7429 146.806 33.1235 143.961 26.4184 139.54C19.7133 135.119 14.0967 129.236 9.99028 122.334C7.02771 117.354 4.90663 111.937 3.69722 106.301C2.9218 102.687 5.6933 99.431 9.37575 99.1153L26.2058 97.6724C29.8883 97.3567 33.0412 100.156 34.4043 103.591C34.8508 104.716 35.3871 105.807 36.0096 106.854C37.7781 109.826 40.1969 112.36 43.0844 114.264C45.972 116.168 49.2534 117.393 52.6822 117.847C56.111 118.301 59.5982 117.973 62.882 116.887C66.1658 115.801 69.161 113.985 71.6426 111.576C74.1243 109.167 76.028 106.227 77.2108 102.976C78.3937 99.7262 78.825 96.2502 78.4723 92.8095C78.3481 91.5982 78.128 90.4025 77.8155 89.233C76.8614 85.6623 77.7236 81.5353 80.8681 79.5931L95.2394 70.7162Z" fill="black"/>
<path d="M313.173 110.843C313.173 131.543 296.392 148.324 275.691 148.324C254.991 148.324 238.21 131.543 238.21 110.843C238.21 90.1426 254.991 73.3617 275.691 73.3617C296.392 73.3617 313.173 90.1426 313.173 110.843ZM263.142 110.843C263.142 117.774 268.761 123.392 275.691 123.392C282.622 123.392 288.24 117.774 288.24 110.843C288.24 103.912 282.622 98.294 275.691 98.294C268.761 98.294 263.142 103.912 263.142 110.843Z" fill="black"/>
<path d="M53.5747 14.4801C58.4417 14.4801 62.3254 15.9796 65.2259 18.9784C68.1756 21.9772 69.6504 26.5001 69.6504 32.5469V53.5544C69.6504 54.659 68.755 55.5544 67.6504 55.5544H54.9848C53.8802 55.5544 52.9848 54.659 52.9848 53.5544V35.4229C52.9848 30.8017 51.4853 28.4911 48.4865 28.4911C46.9133 28.4911 45.6352 29.081 44.6519 30.2609C43.7179 31.4408 43.2508 33.3089 43.2508 35.8653V53.5544C43.2508 54.659 42.3554 55.5544 41.2508 55.5544H28.5852C27.4806 55.5544 26.5852 54.659 26.5852 53.5544V35.4229C26.5852 30.8017 25.0857 28.4911 22.0869 28.4911C20.5137 28.4911 19.2355 29.081 18.2523 30.2609C17.3183 31.4408 16.8512 33.3089 16.8512 35.8653V53.5544C16.8512 54.659 15.9558 55.5544 14.8512 55.5544H2.18555C1.08098 55.5544 0.185547 54.659 0.185547 53.5544V17.2176C0.185547 16.113 1.08098 15.2176 2.18555 15.2176H14.0401C15.1446 15.2176 16.0401 16.113 16.0401 17.2176V18.9784C19.0389 15.9796 22.8489 14.4801 27.4701 14.4801C30.1739 14.4801 32.6074 14.9963 34.7705 16.0287C36.9336 17.012 38.7034 18.536 40.0799 20.6007C41.7022 18.6343 43.6687 17.1349 45.9793 16.1025C48.2899 15.0209 50.8217 14.4801 53.5747 14.4801Z" fill="black"/>
<path d="M120.518 35.3491C120.518 35.5194 120.483 36.1969 120.412 37.3816C120.349 38.4359 119.474 39.2574 118.418 39.2574H92.2748C92.8647 40.7814 93.848 41.9613 95.2245 42.797C96.601 43.5836 98.3216 43.9769 100.386 43.9769C102.156 43.9769 103.631 43.7557 104.811 43.3132C105.617 43.0229 106.466 42.5951 107.357 42.0296C108.204 41.4924 109.32 41.5591 110.026 42.2711L116.157 48.4541C116.907 49.2098 116.941 50.4305 116.144 51.1361C112.262 54.5732 106.838 56.2918 99.8702 56.2918C95.0033 56.2918 90.7262 55.4069 87.0391 53.6371C83.352 51.8181 80.5007 49.3109 78.4851 46.1154C76.4695 42.92 75.4617 39.3312 75.4617 35.3491C75.4617 31.3179 76.4449 27.7291 78.4113 24.5828C80.4269 21.3873 83.1554 18.9047 86.5967 17.1349C90.0871 15.365 93.9955 14.4801 98.3217 14.4801C102.402 14.4801 106.114 15.2913 109.457 16.9136C112.849 18.536 115.528 20.9203 117.495 24.0666C119.51 27.2129 120.518 30.9738 120.518 35.3491ZM98.4691 25.8364C96.7485 25.8364 95.3228 26.3034 94.1921 27.2375C93.0614 28.1716 92.324 29.4989 91.9798 31.2196H104.958C104.614 29.5481 103.877 28.2453 102.746 27.3112C101.615 26.328 100.19 25.8364 98.4691 25.8364Z" fill="black"/>
<path d="M169.391 0.837891C169.943 0.837891 170.391 1.28561 170.391 1.83789V53.5544C170.391 54.659 169.496 55.5544 168.391 55.5544H156.537C155.432 55.5544 154.537 54.659 154.537 53.5544V52.236C152.128 54.9399 148.441 56.2918 143.475 56.2918C139.936 56.2918 136.666 55.4561 133.668 53.7846C130.718 52.064 128.358 49.6059 126.588 46.4104C124.868 43.2149 124.007 39.5278 124.007 35.3491C124.007 31.1704 124.868 27.5079 126.588 24.3616C128.358 21.1661 130.718 18.7326 133.668 17.0611C136.666 15.3405 139.936 14.4801 143.475 14.4801C147.949 14.4801 151.366 15.6354 153.725 17.946V1.83789C153.725 1.2856 154.173 0.837891 154.725 0.837891H169.391ZM147.457 43.3132C149.375 43.3132 150.948 42.625 152.177 41.2485C153.406 39.8228 154.02 37.8563 154.02 35.3491C154.02 32.8419 153.406 30.9 152.177 29.5235C150.948 28.147 149.375 27.4587 147.457 27.4587C145.54 27.4587 143.967 28.147 142.738 29.5235C141.509 30.9 140.894 32.8419 140.894 35.3491C140.894 37.8563 141.509 39.8228 142.738 41.2485C143.967 42.625 145.54 43.3132 147.457 43.3132Z" fill="black"/>
<circle cx="308.19" cy="73.3627" r="4.9828" fill="black"/>
</svg>
