<svg width="311" height="108" viewBox="0 0 311 108" fill="none" xmlns="http://www.w3.org/2000/svg">
<path d="M142.092 36.9253C147.16 31.0973 154.386 27.881 163.768 27.2763C165.612 27.1574 167.114 28.6694 167.114 30.5173V51.5656C167.114 53.6088 165.298 55.1614 163.261 55.0059C162.147 54.9209 161.075 54.8784 160.046 54.8784C149.113 54.8784 143.647 60.4387 143.647 71.5593V102.564C143.647 104.412 142.149 105.91 140.301 105.91H115.045C113.197 105.91 111.699 104.412 111.699 102.564V31.931C111.699 30.083 113.198 28.5849 115.045 28.5849H138.746C140.594 28.5849 142.092 30.083 142.092 31.931V36.9253Z" fill="black"/>
<path d="M234.306 100.6C234.829 102.122 234.202 103.821 232.721 104.451C228.222 106.367 222.502 107.324 215.559 107.324C204.721 107.324 196.381 104.732 190.538 99.5492C184.695 94.2716 181.774 86.4024 181.774 75.9415V56.1507H174.517C172.669 56.1507 171.171 54.6526 171.171 52.8047V36.1719C171.171 34.3239 172.669 32.8258 174.517 32.8258H181.774V14.5433C181.774 12.6953 183.272 11.1973 185.12 11.1973H210.375C212.223 11.1973 213.722 12.6953 213.722 14.5433V32.8258H226.208C228.056 32.8258 229.554 34.3239 229.554 36.1719V52.8047C229.554 54.6526 228.056 56.1507 226.208 56.1507H213.722V75.6588C213.722 78.0149 214.334 79.8526 215.559 81.172C216.784 82.4914 218.387 83.1511 220.366 83.1511C221.495 83.1511 222.568 83.0303 223.585 82.7889C225.733 82.2789 228.283 83.0896 229.001 85.1771L234.306 100.6Z" fill="black"/>
<path d="M92.2374 29.7162C95.3819 27.7739 99.5485 28.7356 101.081 32.099C103.471 37.3449 104.998 42.9583 105.589 48.7223C106.408 56.7119 105.406 64.7832 102.659 72.3304C99.9128 79.8776 95.4923 86.7046 89.7298 92.2989C83.9673 97.8933 77.0124 102.11 69.3872 104.632C61.762 107.154 53.6646 107.916 45.7028 106.861C37.7409 105.806 30.1215 102.961 23.4164 98.5397C16.7114 94.1186 11.0948 88.2362 6.98833 81.334C4.02575 76.3544 1.90467 70.9374 0.695263 65.3011C-0.0801515 61.6874 2.69135 58.431 6.37379 58.1153L23.2039 56.6724C26.8863 56.3567 30.0392 59.1557 31.4024 62.591C31.8488 63.7162 32.3851 64.8075 33.0076 65.8538C34.7761 68.8263 37.1949 71.3596 40.0825 73.2636C42.9701 75.1675 46.2514 76.3927 49.6802 76.8471C53.109 77.3014 56.5962 76.9733 59.88 75.8871C63.1639 74.801 66.159 72.9852 68.6407 70.576C71.1223 68.1667 73.026 65.2266 74.2089 61.9764C75.3917 58.7262 75.823 55.2502 75.4703 51.8095C75.3462 50.5982 75.126 49.4025 74.8135 48.233C73.8595 44.6623 74.7217 40.5353 77.8661 38.5931L92.2374 29.7162Z" fill="black"/>
<path d="M310.171 69.8429C310.171 90.5432 293.39 107.324 272.689 107.324C251.989 107.324 235.208 90.5432 235.208 69.8429C235.208 49.1426 251.989 32.3617 272.689 32.3617C293.39 32.3617 310.171 49.1426 310.171 69.8429ZM260.14 69.8429C260.14 76.7735 265.759 82.3918 272.689 82.3918C279.62 82.3918 285.238 76.7735 285.238 69.8429C285.238 62.9124 279.62 57.294 272.689 57.294C265.759 57.294 260.14 62.9124 260.14 69.8429Z" fill="black"/>
<path d="M131.505 5.97205C133.311 5.97205 134.751 6.52829 135.827 7.64078C136.922 8.75327 137.469 10.4311 137.469 12.6743V19.2095C137.469 20.3141 136.573 21.2095 135.469 21.2095H133.286C132.182 21.2095 131.286 20.3141 131.286 19.2095V13.7412C131.286 12.0269 130.73 11.1697 129.618 11.1697C129.034 11.1697 128.56 11.3886 128.195 11.8263C127.849 12.264 127.675 12.957 127.675 13.9054V19.2095C127.675 20.3141 126.78 21.2095 125.675 21.2095H123.493C122.388 21.2095 121.493 20.3141 121.493 19.2095V13.7412C121.493 12.0269 120.937 11.1697 119.824 11.1697C119.24 11.1697 118.766 11.3886 118.402 11.8263C118.055 12.264 117.882 12.957 117.882 13.9054V19.2095C117.882 20.3141 116.986 21.2095 115.882 21.2095H113.699C112.595 21.2095 111.699 20.3141 111.699 19.2095V8.24561C111.699 7.14104 112.595 6.24561 113.699 6.24561H116.186C116.956 6.24561 117.581 6.87025 117.581 7.64078V7.64078C118.693 6.52829 120.107 5.97205 121.821 5.97205C122.824 5.97205 123.727 6.16354 124.529 6.54653C125.332 6.91128 125.988 7.47664 126.499 8.24262C127.101 7.51312 127.83 6.95687 128.687 6.57388C129.545 6.17266 130.484 5.97205 131.505 5.97205Z" fill="black"/>
<path d="M156.339 13.7139V13.7139C156.339 14.5302 155.621 15.1638 154.805 15.1638H145.862C146.081 15.7291 146.445 16.1668 146.956 16.4769C147.467 16.7687 148.105 16.9146 148.871 16.9146C149.528 16.9146 150.075 16.8325 150.512 16.6684V16.6684C151.433 16.3369 152.504 16.3394 153.194 17.0344L153.881 17.7273C154.63 18.483 154.666 19.7259 153.755 20.2764C152.424 21.0809 150.733 21.4831 148.68 21.4831C146.874 21.4831 145.287 21.1548 143.92 20.4982C142.552 19.8234 141.494 18.8933 140.746 17.7079C139.999 16.5225 139.625 15.1911 139.625 13.7139C139.625 12.2184 139.989 10.8871 140.719 9.71986C141.467 8.53442 142.479 7.61342 143.755 6.95687C145.05 6.30032 146.5 5.97205 148.105 5.97205C149.619 5.97205 150.996 6.27297 152.236 6.8748C153.494 7.47664 154.488 8.36116 155.218 9.52836C155.965 10.6956 156.339 12.0907 156.339 13.7139ZM148.16 10.1849C147.521 10.1849 146.993 10.3582 146.573 10.7047C146.154 11.0512 145.88 11.5436 145.752 12.1819H150.567C150.44 11.5618 150.166 11.0786 149.746 10.732C149.327 10.3673 148.798 10.1849 148.16 10.1849Z" fill="black"/>
<path d="M173.841 0.911133C174.393 0.911133 174.841 1.35885 174.841 1.91113V19.2095C174.841 20.3141 173.946 21.2095 172.841 21.2095H170.19C169.511 21.2095 168.959 20.6583 168.959 19.9785V19.9785C168.066 20.9815 166.698 21.4831 164.856 21.4831C163.543 21.4831 162.33 21.173 161.218 20.5529C160.123 19.9146 159.248 19.0028 158.591 17.8173C157.953 16.6319 157.634 15.2641 157.634 13.7139C157.634 12.1637 157.953 10.805 158.591 9.63779C159.248 8.45235 160.123 7.54959 161.218 6.92952C162.33 6.2912 163.543 5.97205 164.856 5.97205C166.516 5.97205 167.783 6.40063 168.658 7.25779V1.91113C168.658 1.35885 169.106 0.911133 169.658 0.911133H173.841ZM166.333 16.6684C167.044 16.6684 167.628 16.413 168.084 15.9024C168.54 15.3735 168.768 14.644 168.768 13.7139C168.768 12.7838 168.54 12.0634 168.084 11.5527C167.628 11.0421 167.044 10.7868 166.333 10.7868C165.622 10.7868 165.038 11.0421 164.582 11.5527C164.126 12.0634 163.898 12.7838 163.898 13.7139C163.898 14.644 164.126 15.3735 164.582 15.9024C165.038 16.413 165.622 16.6684 166.333 16.6684Z" fill="black"/>
<circle cx="305.188" cy="32.3627" r="4.9828" fill="black"/>
</svg>
