<svg width="21" height="21" viewBox="0 0 21 21" fill="none" xmlns="http://www.w3.org/2000/svg">
<g clip-path="url(#clip0_123_5560)">
<path d="M11.4766 12.0095L10.5332 11.2765C10.246 11.0384 9.85266 10.7237 9.85266 10.1481C9.85266 9.5699 10.2458 9.20235 10.5867 8.86186C11.6854 7.99669 12.7839 7.07595 12.7839 5.13582C12.7839 3.14074 11.5287 2.09117 10.9268 1.59313H12.5491L14.2518 0.523376H9.09342C7.67797 0.523376 5.63794 0.85804 4.14444 2.09117C3.01891 3.06228 2.46988 4.40114 2.46988 5.6068C2.46988 7.65287 4.0408 9.72724 6.81551 9.72724C7.07753 9.72724 7.36412 9.70143 7.65258 9.67479C7.52292 9.9901 7.39201 10.2528 7.39201 10.6981C7.39201 11.5109 7.8095 12.0091 8.17747 12.4811C6.99886 12.5623 4.79816 12.693 3.17563 13.6901C1.63052 14.609 1.16016 15.9462 1.16016 16.8904C1.16016 18.8331 2.99165 20.6425 6.78887 20.6425C11.2918 20.6425 13.6755 18.1511 13.6755 15.6844C13.6759 13.8722 12.629 12.9804 11.4766 12.0095ZM8.04697 8.99215C5.79424 8.99215 4.77381 6.08008 4.77381 4.32309C4.77381 3.63878 4.90347 2.93241 5.34886 2.38067C5.76906 1.85537 6.50041 1.51446 7.18326 1.51446C9.35482 1.51446 10.4812 4.45276 10.4812 6.34231C10.4812 6.81496 10.429 7.65266 9.82685 8.25851C9.40582 8.67913 8.70111 8.99215 8.04697 8.99215ZM8.07278 19.5432C5.27143 19.5432 3.46513 18.2033 3.46513 16.3398C3.46513 14.4773 5.14011 13.8468 5.7162 13.6385C6.8153 13.2687 8.2295 13.2173 8.46551 13.2173C8.72733 13.2173 8.85824 13.2173 9.06678 13.2435C11.0581 14.6608 11.9224 15.367 11.9224 16.7088C11.9227 18.3332 10.5869 19.5432 8.07278 19.5432Z" fill="#FF6262"/>
<path d="M18.0877 8.95281V6.32941H16.7923V8.95281H14.1729V10.2627H16.7923V12.9026H18.0877V10.2627H20.7202V8.95281H18.0877Z" fill="#FF6262"/>
</g>
<defs>
<clipPath id="clip0_123_5560">
<rect width="20.1191" height="20.1191" fill="white" transform="translate(0.880859 0.523376)"/>
</clipPath>
</defs>
</svg>
