<svg width="14" height="23" viewBox="0 0 14 23" fill="none" xmlns="http://www.w3.org/2000/svg">
<path d="M5.78729 15.9401C4.10761 15.7649 2.59313 15.3512 1.29649 14.3371C1.13561 14.211 0.969499 14.0893 0.822681 13.9484C0.255148 13.4033 0.197964 12.7791 0.647043 12.1358C1.03122 11.5852 1.67614 11.438 2.34646 11.7541C2.47626 11.8153 2.59994 11.8918 2.71839 11.974C5.13488 13.6343 8.45453 13.6802 10.8801 12.0486C11.1204 11.8644 11.3773 11.7141 11.675 11.6374C12.2539 11.4888 12.7937 11.7014 13.1044 12.2079C13.4593 12.7863 13.4548 13.3509 13.0175 13.8C12.3467 14.4885 11.54 14.9866 10.6436 15.3342C9.79609 15.6628 8.86776 15.8282 7.94895 15.9381C8.0876 16.089 8.15295 16.1632 8.23963 16.2503C9.48725 17.5038 10.7403 18.7521 11.9839 20.0095C12.4075 20.4379 12.496 20.9692 12.2627 21.4675C12.0077 22.0121 11.4367 22.3704 10.8769 22.3321C10.5222 22.3075 10.2456 22.131 9.99987 21.8834C9.05837 20.936 8.09917 20.0061 7.17673 19.0408C6.90828 18.7601 6.77916 18.8132 6.54226 19.0569C5.59508 20.032 4.63248 20.9921 3.6642 21.9467C3.22942 22.3754 2.71204 22.4525 2.20781 22.2077C1.67182 21.9479 1.33076 21.4008 1.35708 20.8509C1.37524 20.479 1.55814 20.1949 1.81342 19.9401C3.04811 18.7072 4.27939 17.4711 5.51112 16.2362C5.59259 16.1541 5.6686 16.067 5.78729 15.9401Z" fill="#FFAA47"/>
<path d="M6.81026 11.6458C3.81376 11.6356 1.35664 9.15148 1.37412 6.1502C1.39136 3.1158 3.85006 0.670489 6.87607 0.678885C9.9082 0.687054 12.3419 3.16754 12.3267 6.23349C12.3113 9.22863 9.83718 11.6562 6.81026 11.6458ZM9.53356 6.15747C9.52834 4.66727 8.34153 3.48092 6.85429 3.47956C5.35456 3.47797 4.15709 4.68588 4.16866 6.18969C4.17978 7.67421 5.3768 8.85217 6.86813 8.84672C8.35492 8.8415 9.53855 7.64744 9.53356 6.15747Z" fill="#FFAA47"/>
</svg>
