<svg width="24" height="24" viewBox="0 0 24 24" fill="none" xmlns="http://www.w3.org/2000/svg">
<g clip-path="url(#clip0_123_5556)">
<path d="M23.8924 5.08383C23.8591 5.0446 23.8042 5.03129 23.7574 5.05269C23.0634 5.36059 22.3332 5.58194 21.5811 5.71271C22.3795 5.11213 22.9744 4.28043 23.2795 3.32677C23.2942 3.28112 23.279 3.23119 23.2417 3.20147C23.2041 3.17175 23.152 3.16795 23.1109 3.19244C22.2117 3.72574 21.2378 4.10164 20.215 4.31016C19.3086 3.36957 18.043 2.83151 16.7332 2.83151C14.0693 2.83151 11.9023 4.99848 11.9023 7.66213C11.9023 7.98429 11.9335 8.30337 11.9953 8.61317C8.30569 8.3854 4.85577 6.61407 2.51 3.73691C2.48599 3.70743 2.44961 3.69102 2.41157 3.69483C2.37377 3.69768 2.34001 3.71908 2.32098 3.75165C1.89301 4.48586 1.6669 5.32587 1.6669 6.18039C1.6669 7.66141 2.33977 9.04614 3.48554 9.95986C2.89566 9.88901 2.31956 9.70331 1.80005 9.41491C1.7651 9.39517 1.72159 9.39541 1.68663 9.41562C1.65168 9.43559 1.62957 9.47268 1.62862 9.5131L1.62815 9.57492C1.62815 11.7019 3.02975 13.5696 5.02386 14.1896C4.49865 14.2743 3.9537 14.2686 3.41802 14.1663C3.37855 14.159 3.33718 14.1725 3.31007 14.203C3.28321 14.2334 3.27417 14.276 3.28654 14.3145C3.88451 16.1809 5.54599 17.4898 7.47995 17.6529C5.86673 18.8348 3.95988 19.4575 1.94508 19.4575C1.57394 19.4575 1.20017 19.4354 0.83402 19.3924C0.781712 19.3864 0.72988 19.4176 0.71181 19.4677C0.69374 19.5184 0.712999 19.575 0.758174 19.6037C2.93845 21.002 5.45944 21.7407 8.04891 21.7407C16.5192 21.7407 21.5807 14.8604 21.5807 8.20874C21.5807 8.02352 21.5771 7.83926 21.5697 7.65547C22.4834 6.98712 23.2678 6.16898 23.9003 5.22197C23.9286 5.17965 23.9255 5.1233 23.8924 5.08383Z" fill="#30B4FF"/>
</g>
<defs>
<clipPath id="clip0_123_5556">
<rect width="23.2144" height="23.2144" fill="white" transform="translate(0.705078 0.678955)"/>
</clipPath>
</defs>
</svg>
