<svg width="28" height="17" viewBox="0 0 28 17" fill="none" xmlns="http://www.w3.org/2000/svg">
<path d="M25.962 13.2835C25.1556 12.3163 24.2067 11.4909 23.3088 10.6143C22.4988 9.82424 22.4477 9.36591 23.0989 8.45402C23.8095 7.45877 24.5738 6.50169 25.2909 5.51092C25.9603 4.585 26.6446 3.6616 26.9968 2.55295C27.2202 1.84763 27.0226 1.53609 26.2994 1.41259C26.1747 1.39098 26.0459 1.38986 25.9191 1.38986L21.6279 1.38481C21.0994 1.37695 20.8072 1.60738 20.6203 2.07582C20.368 2.709 20.1078 3.34163 19.8072 3.95265C19.1252 5.33803 18.3634 6.6771 17.2955 7.81101C17.06 8.06108 16.7996 8.37712 16.4061 8.24689C15.9138 8.06726 15.7687 7.25612 15.7768 6.98191L15.7726 2.02894C15.6772 1.32138 15.5203 1.00591 14.8177 0.868378L10.3602 0.86922C9.76515 0.86922 9.46679 1.09909 9.14908 1.47125C8.9658 1.68625 8.91051 1.82574 9.28717 1.89703C10.027 2.03736 10.4438 2.51619 10.5544 3.25799C10.7318 4.44326 10.7194 5.6333 10.6173 6.82333C10.5872 7.1708 10.5274 7.51743 10.3896 7.84188C10.1741 8.35186 9.82605 8.4557 9.36884 8.14192C8.95485 7.85788 8.66408 7.45708 8.37948 7.0546C7.31041 5.54404 6.45746 3.91504 5.76196 2.20324C5.561 1.7087 5.21438 1.40895 4.69037 1.40081C3.40294 1.38032 2.11523 1.37695 0.827801 1.40193C0.0531539 1.41652 -0.177837 1.79262 0.137635 2.49485C1.53986 5.61393 3.10066 8.64628 5.13804 11.4086C6.18409 12.8263 7.38507 14.0778 8.93661 14.9647C10.695 15.9701 12.5878 16.2726 14.5814 16.1794C15.5149 16.1356 15.7953 15.8929 15.8385 14.9625C15.8677 14.3259 15.9399 13.693 16.2539 13.121C16.5621 12.5596 17.0289 12.4527 17.5669 12.8019C17.8361 12.9767 18.0628 13.1993 18.277 13.4339C18.8024 14.0087 19.309 14.601 19.8544 15.1564C20.5383 15.8525 21.3486 16.2636 22.3675 16.1797L26.3114 16.1806C26.9469 16.139 27.2764 15.3599 26.9115 14.6506C26.6552 14.1538 26.319 13.7115 25.962 13.2835Z" fill="#5694CE"/>
</svg>
