<svg width="12" height="14" viewBox="0 0 12 14" fill="none" xmlns="http://www.w3.org/2000/svg">
<path d="M6.75 1.58301C6.75 1.13428 6.41421 0.770508 6 0.770508C5.58579 0.770508 5.25 1.13428 5.25 1.58301V6.18717H1C0.585787 6.18717 0.25 6.55094 0.25 6.99967C0.25 7.4484 0.585787 7.81217 1 7.81217H5.25V12.4163C5.25 12.8651 5.58579 13.2288 6 13.2288C6.41421 13.2288 6.75 12.8651 6.75 12.4163V7.81217H11C11.4142 7.81217 11.75 7.44841 11.75 6.99967C11.75 6.55094 11.4142 6.18717 11 6.18717H6.75V1.58301Z" fill="black"/>
</svg>
