<svg width="28" height="26" viewBox="0 0 28 26" fill="none" xmlns="http://www.w3.org/2000/svg">
<path d="M14.9135 4.58854C13.8121 3.70744 12.4803 3.16205 11.0773 3.01755C9.67425 2.87304 8.25928 3.13552 7.00143 3.77364C5.74358 4.41175 4.69603 5.39852 3.98396 6.61603C3.27188 7.83354 2.92538 9.23031 2.98587 10.6395C3.04635 12.0486 3.51125 13.4106 4.32502 14.5626C5.1388 15.7146 6.26704 16.608 7.57494 17.136C8.88284 17.664 10.3151 17.8043 11.7006 17.5401C13.0861 17.2759 14.3662 16.6184 15.3881 15.6462L10.3247 10.3245L14.9135 4.58854Z" fill="#FFC179"/>
<path d="M13.1893 20.5576C14.3035 21.4225 15.6432 21.9482 17.0482 22.0721C18.4532 22.1959 19.8641 21.9127 21.1125 21.2562C22.3608 20.5996 23.3937 19.5976 24.0878 18.3697C24.7819 17.1419 25.1079 15.7402 25.0267 14.3321C24.9455 12.9239 24.4606 11.569 23.63 10.429C22.7994 9.28909 21.6582 8.41239 20.3426 7.90368C19.0271 7.39496 17.5929 7.27575 16.2115 7.56027C14.83 7.84479 13.5597 8.52102 12.5523 9.50817L17.6933 14.7549L13.1893 20.5576Z" fill="#C4C4C4"/>
</svg>
