<svg width="18" height="20" viewBox="0 0 18 20" fill="none" xmlns="http://www.w3.org/2000/svg">
<path fill-rule="evenodd" clip-rule="evenodd" d="M8.75 0C4.74594 0 1.5 3.24594 1.5 7.25C1.5 8.71813 1.93639 10.0843 2.68652 11.226L0.100482 15.7051C-0.0465825 15.9599 -0.0311789 16.277 0.139877 16.5163C0.310933 16.7556 0.606064 16.8728 0.89467 16.816L3.50854 16.3022L4.37047 18.8228C4.46564 19.1011 4.71471 19.2981 5.00745 19.3266C5.3002 19.3551 5.58258 19.2099 5.72965 18.9551L8.30942 14.4868C8.45516 14.4956 8.60207 14.5 8.75 14.5C8.89794 14.5 9.04485 14.4956 9.19059 14.4868L11.7704 18.9551C11.9176 19.2101 12.2004 19.3554 12.4934 19.3265C12.7864 19.2977 13.0354 19.1001 13.1301 18.8213L13.9876 16.2955L16.6037 16.8157C16.8925 16.8732 17.1882 16.7563 17.3597 16.517C17.5312 16.2776 17.5467 15.9601 17.3995 15.7051L14.8135 11.226C15.5636 10.0843 16 8.71813 16 7.25C16 3.24594 12.7541 0 8.75 0ZM3 7.25C3 4.07436 5.57437 1.5 8.75 1.5C11.9256 1.5 14.5 4.07436 14.5 7.25C14.5 10.4256 11.9256 13 8.75 13C5.57437 13 3 10.4256 3 7.25ZM6.73376 14.216C5.58078 13.8828 4.54597 13.2712 3.70691 12.4586L2.2247 15.0259L3.86167 14.7041C4.22972 14.6317 4.59463 14.8424 4.71599 15.1973L5.25579 16.7759L6.73376 14.216ZM12.2418 16.7717L10.7663 14.216C11.9192 13.8828 12.954 13.2712 13.7931 12.4586L15.2729 15.0217L13.6351 14.6961C13.266 14.6227 12.8997 14.8342 12.7787 15.1906L12.2418 16.7717Z" fill="#58B467"/>
<path fill-rule="evenodd" clip-rule="evenodd" d="M12.014 5.40244C12.1482 5.53668 12.1482 5.75433 12.014 5.88858L8.80565 9.09691C8.67141 9.23115 8.45376 9.23115 8.31951 9.09691L6.48618 7.26358C6.35194 7.12933 6.35194 6.91168 6.48618 6.77744C6.62042 6.6432 6.83807 6.6432 6.97232 6.77744L8.56258 8.3677L11.5278 5.40244C11.6621 5.2682 11.8797 5.2682 12.014 5.40244Z" fill="#58B467" stroke="#58B467" stroke-linecap="round" stroke-linejoin="round"/>
</svg>
