<?xml version="1.0" encoding="utf-8"?>
<svg 
	version="1.1" 
	xmlns="http://www.w3.org/2000/svg" 
	xmlns:xlink="http://www.w3.org/1999/xlink" 
	width="22px" 
	height="20px" 
	viewBox="0 0 22 20" 
	style="enable-background:new 0 0 22 20" 
	xml:space="preserve"
>
	<path d="M19.6,3H4.9L3.6,0.9C3.5,0.6,3.2,0.5,2.9,0.5H1.3c-0.4,0-0.8,0.3-0.8,0.8S0.9,2,1.3,2h1.1l1.2,2.1l2.9,6l0,0
		l0.3,0.5l-2.9,2.9c-0.2,0.2-0.3,0.5-0.2,0.8c0.1,0.3,0.4,0.5,0.7,0.5L7,15.2c3.3,0.4,6.6,0.4,9.9,0l2.6-0.3c0.4,0,0.8-0.4,0.7-0.8
		c-0.1-0.4-0.4-0.7-0.9-0.7l-2.6,0.3c-3.2,0.3-6.4,0.3-9.5,0l-1-0.1l2.1-2.1c0,0,0,0,0.1-0.1l0.8,0.1c1.1,0.1,2.3,0.2,3.4,0.1
		c2.6-0.2,5.1-1.4,6.8-3.3L20,7.5c0,0,0,0,0.1-0.1l1.2-1.7C22,4.6,21.1,3,19.6,3z M8.4,9.8C8.2,9.8,8.1,9.7,8,9.5l0,0l-2.4-5h14
		c0.2,0,0.3,0.2,0.2,0.4l-1.1,1.6l-0.6,0.7c-1.4,1.6-3.5,2.6-5.7,2.8c-1,0.1-2.1,0.1-3.1-0.1L8.4,9.8z"/>
	<path d="M6.1,16.5c-0.9,0-1.6,0.7-1.6,1.5s0.7,1.5,1.6,1.5s1.6-0.7,1.6-1.5S7,16.5,6.1,16.5z"/>
	<path d="M16.3,18c0-0.8,0.7-1.5,1.6-1.5s1.6,0.7,1.6,1.5s-0.7,1.5-1.6,1.5S16.3,18.8,16.3,18z"/>
</svg>
