<?xml version="1.0" encoding="utf-8"?>
<svg version="1.1" xmlns="http://www.w3.org/2000/svg" xmlns:xlink="http://www.w3.org/1999/xlink" viewBox="0 0 20 20" xml:space="preserve">
<style type="text/css">
	.st0{fill:#FFFFFF;}
	.st1{fill-rule:evenodd;clip-rule:evenodd;fill:#FFFFFF;}
</style>
<path class="st0" d="M14.8,9c0,0.4-0.3,0.8-0.8,0.8H6C5.6,9.8,5.2,9.4,5.2,9c0-0.4,0.3-0.8,0.8-0.8h8C14.4,8.2,14.8,8.6,14.8,9z"/>
<path class="st1" d="M2.4,6.1l1.2-3.2c0.3-0.8,1-1.4,1.9-1.5c3-0.4,6.1-0.4,9.1,0c0.9,0.1,1.6,0.7,1.9,1.5l1.2,3.2
	c0.2,0.3,0.4,0.7,0.4,1.2L18.2,8c0.4,2.7,0.4,5.4-0.1,8c-0.2,1.2-1.2,2.1-2.4,2.2l-1.2,0.1c-3,0.3-5.9,0.3-8.9,0l-1.2-0.1
	c-1.2-0.1-2.1-1-2.4-2.2c-0.5-2.6-0.5-5.4-0.1-8l0.1-0.7C2,6.9,2.2,6.5,2.4,6.1z M5.7,2.9c2.9-0.4,5.8-0.4,8.7,0
	c0.3,0,0.6,0.3,0.7,0.6l0.5,1.4c0,0-0.1,0-0.1,0l-1-0.1c-2.9-0.3-5.9-0.3-8.8,0l-1,0.1c0,0-0.1,0-0.1,0L5,3.4
	C5.1,3.1,5.4,2.9,5.7,2.9z M3.7,6.9L3.7,6.9L3.7,6.9C4,6.5,4.3,6.3,4.8,6.3l1-0.1c2.8-0.3,5.7-0.3,8.5,0l1,0.1c0.4,0,0.8,0.3,1,0.6
	l0,0.1l0,0c0.1,0.2,0.2,0.4,0.3,0.6l0.1,0.7c0.4,2.5,0.3,5-0.1,7.5c-0.1,0.5-0.5,0.9-1,1l-1.2,0.1c-2.9,0.3-5.8,0.3-8.6,0l-1.2-0.1
	c-0.5-0.1-0.9-0.4-1-1C3,13.3,3,10.7,3.3,8.2l0.1-0.7C3.5,7.3,3.6,7.1,3.7,6.9z"/>
</svg>
