<svg width="17" height="19" viewBox="0 0 17 19" fill="none" xmlns="http://www.w3.org/2000/svg">
<path d="M16.5108 2.28953C16.5841 1.81657 16.3528 1.4021 16.049 1.15825C15.7458 0.914916 15.2857 0.775878 14.8396 0.972784L14.5209 1.11344C9.67083 3.25419 5.08957 5.85729 0.83295 8.8914C0.377226 9.21624 0.337703 9.75259 0.486922 10.1415C0.635623 10.5292 1.00074 10.8797 1.50831 10.931L6.95834 11.482C7.63411 11.5503 8.27213 12.0557 8.50741 12.731L10.3566 18.0387C10.5231 18.5164 10.936 18.8026 11.3536 18.8587C11.7787 18.9157 12.2816 18.7306 12.4738 18.2031C14.2916 13.2135 15.6243 8.00541 16.4561 2.64209L16.5108 2.28953Z" fill="#C4C4C4"/>
</svg>
