<?xml version="1.0" encoding="utf-8"?>
<!-- Generator: Adobe Illustrator 24.3.0, SVG Export Plug-In . SVG Version: 6.00 Build 0)  -->
<svg version="1.1" id="Слой_1" xmlns="http://www.w3.org/2000/svg" xmlns:xlink="http://www.w3.org/1999/xlink" x="0px" y="0px"
	 width="12px" height="12px" viewBox="0 0 12 12" style="enable-background:new 0 0 12 12;" xml:space="preserve">
<style type="text/css">
	.st0{fill:#FFFFFF;}
</style>
<path class="st0" d="M1,11.7c-0.2,0-0.4-0.1-0.5-0.2c-0.3-0.3-0.3-0.8,0-1.1l10-10c0.3-0.3,0.8-0.3,1.1,0s0.3,0.8,0,1.1l-10,10
	C1.4,11.7,1.2,11.7,1,11.7z"/>
<path class="st0" d="M11,11.7c-0.2,0-0.4-0.1-0.5-0.2l-10-10c-0.3-0.3-0.3-0.8,0-1.1s0.8-0.3,1.1,0l10,10c0.3,0.3,0.3,0.8,0,1.1
	C11.4,11.7,11.2,11.7,11,11.7z"/>
</svg>
