<?xml version="1.0" encoding="utf-8"?>
<!-- Generator: Adobe Illustrator 24.3.0, SVG Export Plug-In . SVG Version: 6.00 Build 0)  -->
<svg version="1.1" id="Слой_1" xmlns="http://www.w3.org/2000/svg" xmlns:xlink="http://www.w3.org/1999/xlink" x="0px" y="0px"
	 width="18px" height="15px" viewBox="0 0 18 15" style="enable-background:new 0 0 18 15;" xml:space="preserve">
<style type="text/css">
	.st0{fill-rule:evenodd;clip-rule:evenodd;}
</style>
<path class="st0" d="M5,0.6c2.7-0.2,5.4-0.2,8.1,0l1.6,0.1c1.2,0.1,2.2,1,2.4,2.3l0.1,0.7c0.3,2.3,0.3,4.6-0.1,6.8
	c-0.2,1.1-1.2,1.9-2.3,1.9h-9c-0.2,0-0.4,0.1-0.6,0.1l-3.9,2.1c-0.2,0.1-0.5,0.1-0.7,0c-0.2-0.1-0.4-0.4-0.4-0.6V5.5
	c0-2.6,2-4.7,4.6-4.9L5,0.6z M5,5.5c-0.7,0-1.2,0.6-1.2,1.2C3.8,7.4,4.3,8,5,8s1.2-0.6,1.2-1.2C6.2,6.1,5.7,5.5,5,5.5z M9,5.5
	c-0.7,0-1.2,0.6-1.2,1.2C7.8,7.4,8.3,8,9,8s1.2-0.6,1.2-1.2C10.2,6.1,9.7,5.5,9,5.5z M11.8,6.7c0-0.7,0.6-1.2,1.2-1.2
	s1.2,0.6,1.2,1.2C14.2,7.4,13.7,8,13,8S11.8,7.4,11.8,6.7z"/>
</svg>
