<svg width="10" height="10" viewBox="0 0 10 10" fill="none" xmlns="http://www.w3.org/2000/svg">
<path d="M9.06624 1.99481C9.35913 1.70191 9.35913 1.22704 9.06624 0.934147C8.77335 0.641254 8.29847 0.641254 8.00558 0.934147L5.00038 3.93935L1.99518 0.934148C1.70229 0.641255 1.22742 0.641255 0.934523 0.934148C0.64163 1.22704 0.64163 1.70191 0.934523 1.99481L3.93972 5.00001L0.934514 8.00522C0.641621 8.29811 0.64162 8.77298 0.934514 9.06588C1.22741 9.35877 1.70228 9.35877 1.99517 9.06588L5.00038 6.06067L8.00559 9.06588C8.29848 9.35877 8.77336 9.35877 9.06625 9.06588C9.35914 8.77298 9.35914 8.29811 9.06625 8.00522L6.06104 5.00001L9.06624 1.99481Z" fill="black"/>
</svg>
