<?xml version="1.0" encoding="utf-8"?>
<!-- Generator: Adobe Illustrator 24.3.0, SVG Export Plug-In . SVG Version: 6.00 Build 0)  -->
<svg version="1.1" id="Слой_1" xmlns="http://www.w3.org/2000/svg" xmlns:xlink="http://www.w3.org/1999/xlink" x="0px" y="0px"
	 width="16px" height="19px" viewBox="0 0 16 19" style="enable-background:new 0 0 16 19;" xml:space="preserve">
<style type="text/css">
	.st0{fill-rule:evenodd;clip-rule:evenodd;}
</style>
<path d="M5.5,6.5c0-1.2,1-2.2,2.2-2.2s2.2,1,2.2,2.2S9,8.8,7.8,8.8S5.5,7.7,5.5,6.5z"/>
<path class="st0" d="M7.6,0C4.4,0,1.7,2.5,1.5,5.6c-0.1,1.7,0.4,3.4,1.5,4.8l3.6,4.4c0.6,0.8,1.8,0.8,2.4,0l3.6-4.4
	c1.1-1.3,1.6-3,1.5-4.8C13.8,2.5,11.1,0,7.9,0H7.6z M7.8,2.8C5.7,2.8,4,4.4,4,6.5s1.7,3.8,3.8,3.8s3.8-1.7,3.8-3.8S9.8,2.8,7.8,2.8z
	"/>
<path d="M3.1,12.8c0.4,0.2,0.5,0.6,0.3,1L2,16.8h11.6l-1.5-2.9c-0.2-0.4,0-0.8,0.3-1c0.4-0.2,0.8,0,1,0.3l2,4c0.1,0.2,0.1,0.5,0,0.7
	c-0.1,0.2-0.4,0.4-0.6,0.4h-14c-0.3,0-0.5-0.1-0.6-0.4c-0.1-0.2-0.1-0.5,0-0.7l2-4C2.3,12.8,2.7,12.6,3.1,12.8z"/>
</svg>
