<svg width="15" height="18" viewBox="0 0 15 18" fill="none" xmlns="http://www.w3.org/2000/svg">
<path d="M7.66302 17.2502C8.12103 17.2502 8.55006 17.0261 8.81179 16.6503L13.0437 10.5732C13.8384 9.43201 14.1925 8.04151 14.0406 6.65922L13.7152 3.69782C13.5762 2.43232 12.5827 1.42991 11.3185 1.27952L9.20144 1.02769C7.58478 0.835375 5.9456 1.00208 4.40075 1.51591C3.31942 1.87557 2.45331 2.6963 2.03603 3.75673L0.327416 8.0988C0.244771 8.30883 0.187654 8.52802 0.157295 8.75167C-0.10702 10.6988 1.65242 12.312 3.56938 11.88L7.33988 11.0304C7.35948 11.026 7.37168 11.028 7.38044 11.0307C7.39113 11.0341 7.4035 11.0412 7.4147 11.0527C7.4259 11.0643 7.43255 11.0768 7.4356 11.0876C7.4381 11.0965 7.4397 11.1087 7.43469 11.1282L6.30743 15.5008C6.07902 16.3868 6.74805 17.2502 7.66302 17.2502Z" fill="#F33737"/>
</svg>
