<?xml version="1.0" encoding="utf-8"?>
<!-- Generator: Adobe Illustrator 24.3.0, SVG Export Plug-In . SVG Version: 6.00 Build 0)  -->
<svg version="1.1" id="Слой_1" xmlns="http://www.w3.org/2000/svg" xmlns:xlink="http://www.w3.org/1999/xlink" x="0px" y="0px"
	 width="22px" height="18px" viewBox="0 0 22 18" style="enable-background:new 0 0 22 18;" xml:space="preserve">
<style type="text/css">
	.st0{fill:#DDDDDD;}
</style>
<path class="st0" d="M16,18c-0.3,0-0.5-0.1-0.7-0.3l-2-2c-0.4-0.4-0.4-1,0-1.4s1-0.4,1.4,0l1.3,1.3l3.3-3.3c0.4-0.4,1-0.4,1.4,0
	s0.4,1,0,1.4l-4,4C16.5,17.9,16.3,18,16,18z M11,16c-4.4,0-8-2.5-10.9-7.5C0,8.2,0,7.8,0.1,7.5C3,2.5,6.6,0,11,0s8,2.5,10.9,7.5
	c0.2,0.3,0.2,0.7,0,1c-0.4,0.8-0.9,1.5-1.4,2.1c-0.3,0.4-1,0.5-1.4,0.2c-0.4-0.3-0.5-1-0.2-1.4c0.3-0.5,0.7-0.9,1-1.4
	c-2.4-4-5.3-6-8.8-6S4.6,4,2.2,8c2.4,4,5.3,6,8.8,6c0.6,0,1,0.4,1,1S11.6,16,11,16z M11,11c-1.7,0-3-1.3-3-3s1.3-3,3-3s3,1.3,3,3
	S12.7,11,11,11z M11,7c-0.6,0-1,0.4-1,1s0.4,1,1,1s1-0.4,1-1S11.6,7,11,7z"/>
</svg>
