<?xml version="1.0" encoding="utf-8"?>
<!-- Generator: Adobe Illustrator 24.3.0, SVG Export Plug-In . SVG Version: 6.00 Build 0)  -->
<svg version="1.1" id="Слой_1" xmlns="http://www.w3.org/2000/svg" xmlns:xlink="http://www.w3.org/1999/xlink" x="0px" y="0px"
	 width="14px" height="10px" viewBox="0 0 14 10" style="enable-background:new 0 0 14 10;" xml:space="preserve">
<style type="text/css">
	.st0{fill-rule:evenodd;clip-rule:evenodd;}
</style>
<path d="M7,3.5C6.2,3.5,5.5,4.2,5.5,5c0,0.8,0.7,1.5,1.5,1.5c0.8,0,1.5-0.7,1.5-1.5C8.5,4.2,7.8,3.5,7,3.5z"/>
<path class="st0" d="M7,0.7c-1.7,0-3.3,0.7-4.4,1.6C2,2.7,1.5,3.2,1.2,3.6C0.9,4.1,0.7,4.6,0.7,5c0,0.4,0.2,0.9,0.5,1.4
	c0.3,0.5,0.8,1,1.4,1.4C3.7,8.6,5.3,9.3,7,9.3s3.3-0.7,4.4-1.6c0.6-0.4,1-0.9,1.4-1.4c0.3-0.5,0.5-0.9,0.5-1.4
	c0-0.4-0.2-0.9-0.5-1.4c-0.3-0.5-0.8-1-1.4-1.4C10.3,1.4,8.7,0.7,7,0.7z M4.5,5c0-1.4,1.1-2.5,2.5-2.5S9.5,3.6,9.5,5
	c0,1.4-1.1,2.5-2.5,2.5S4.5,6.4,4.5,5z"/>
</svg>
