<svg width="13" height="14" viewBox="0 0 13 14" fill="none" xmlns="http://www.w3.org/2000/svg">
<path fill-rule="evenodd" clip-rule="evenodd" d="M10.7399 1.84179C7.92202 1.52686 5.07783 1.52686 2.25997 1.84179C2.0693 1.8631 1.97749 2.08669 2.09815 2.23585L4.58937 5.31536C5.4818 6.41853 5.96868 7.79451 5.96868 9.21345V11.26L7.03118 12.0392V9.21346C7.03118 7.79451 7.51806 6.41853 8.41048 5.31536L10.9017 2.23585C11.0224 2.08669 10.9306 1.8631 10.7399 1.84179ZM2.14195 0.785869C5.03825 0.462165 7.9616 0.462165 10.8579 0.785869C11.8828 0.900417 12.3764 2.10231 11.7278 2.90409L9.23653 5.9836C8.49709 6.89766 8.09368 8.03776 8.09368 9.21346V13.0875C8.09368 13.2877 7.98113 13.4709 7.80256 13.5614C7.62398 13.6519 7.4097 13.6343 7.24826 13.5159L5.12326 11.9576C4.9868 11.8575 4.90618 11.6984 4.90618 11.5292V9.21345C4.90618 8.03776 4.50276 6.89766 3.76332 5.9836L1.2721 2.90409C0.623488 2.10231 1.11704 0.900418 2.14195 0.785869Z" fill="#70CFBE"/>
</svg>
