<svg width="19" height="19" viewBox="0 0 19 19" fill="none" xmlns="http://www.w3.org/2000/svg">
<path d="M3.6371 0.0666361C2.84214 -0.022212 2.02101 -0.022212 1.22605 0.0666361C0.627384 0.133546 0.142234 0.604748 0.0713464 1.21083C-0.0237821 2.02418 -0.0237821 2.84585 0.0713464 3.6592C0.142234 4.26528 0.627385 4.73648 1.22605 4.80339C2.02101 4.89224 2.84214 4.89224 3.6371 4.80339C4.23577 4.73648 4.72092 4.26528 4.7918 3.6592C4.88693 2.84585 4.88693 2.02418 4.7918 1.21083C4.72092 0.604748 4.23577 0.133546 3.6371 0.0666361Z" fill="black"/>
<path d="M10.6371 0.0666361C9.84213 -0.022212 9.021 -0.022212 8.22604 0.0666361C7.62738 0.133546 7.14223 0.604748 7.07134 1.21083C6.97621 2.02418 6.97621 2.84585 7.07134 3.6592C7.14223 4.26528 7.62738 4.73648 8.22605 4.80339C9.021 4.89224 9.84213 4.89224 10.6371 4.80339C11.2358 4.73648 11.7209 4.26528 11.7918 3.6592C11.8869 2.84585 11.8869 2.02418 11.7918 1.21083C11.7209 0.604748 11.2358 0.133546 10.6371 0.0666361Z" fill="black"/>
<path d="M17.6371 0.0666361C16.8421 -0.022212 16.021 -0.022212 15.226 0.0666361C14.6274 0.133546 14.1422 0.604748 14.0713 1.21083C13.9762 2.02418 13.9762 2.84585 14.0713 3.6592C14.1422 4.26528 14.6274 4.73648 15.226 4.80339C16.021 4.89224 16.8421 4.89224 17.6371 4.80339C18.2358 4.73648 18.7209 4.26528 18.7918 3.6592C18.8869 2.84585 18.8869 2.02418 18.7918 1.21083C18.7209 0.604748 18.2358 0.133546 17.6371 0.0666361Z" fill="black"/>
<path d="M3.6371 7.06664C2.84214 6.97779 2.02101 6.97779 1.22605 7.06664C0.627384 7.13355 0.142234 7.60475 0.0713464 8.21083C-0.0237821 9.02418 -0.0237821 9.84585 0.0713464 10.6592C0.142234 11.2653 0.627385 11.7365 1.22605 11.8034C2.02101 11.8922 2.84214 11.8922 3.6371 11.8034C4.23577 11.7365 4.72092 11.2653 4.7918 10.6592C4.88693 9.84585 4.88693 9.02418 4.7918 8.21083C4.72092 7.60475 4.23577 7.13355 3.6371 7.06664Z" fill="black"/>
<path d="M10.6371 7.06664C9.84213 6.97779 9.021 6.97779 8.22604 7.06664C7.62738 7.13355 7.14223 7.60475 7.07134 8.21083C6.97621 9.02418 6.97621 9.84585 7.07134 10.6592C7.14223 11.2653 7.62738 11.7365 8.22605 11.8034C9.021 11.8922 9.84213 11.8922 10.6371 11.8034C11.2358 11.7365 11.7209 11.2653 11.7918 10.6592C11.8869 9.84585 11.8869 9.02418 11.7918 8.21083C11.7209 7.60475 11.2358 7.13355 10.6371 7.06664Z" fill="black"/>
<path d="M17.6371 7.06664C16.8421 6.97779 16.021 6.97779 15.226 7.06664C14.6274 7.13355 14.1422 7.60475 14.0713 8.21083C13.9762 9.02418 13.9762 9.84585 14.0713 10.6592C14.1422 11.2653 14.6274 11.7365 15.226 11.8034C16.021 11.8922 16.8421 11.8922 17.6371 11.8034C18.2358 11.7365 18.7209 11.2653 18.7918 10.6592C18.8869 9.84585 18.8869 9.02418 18.7918 8.21083C18.7209 7.60475 18.2358 7.13355 17.6371 7.06664Z" fill="black"/>
<path d="M3.6371 14.0666C2.84214 13.9778 2.02101 13.9778 1.22605 14.0666C0.627384 14.1335 0.142234 14.6047 0.0713464 15.2108C-0.0237821 16.0242 -0.0237821 16.8458 0.0713464 17.6592C0.142234 18.2653 0.627385 18.7365 1.22605 18.8034C2.02101 18.8922 2.84214 18.8922 3.6371 18.8034C4.23577 18.7365 4.72092 18.2653 4.7918 17.6592C4.88693 16.8458 4.88693 16.0242 4.7918 15.2108C4.72092 14.6047 4.23577 14.1335 3.6371 14.0666Z" fill="black"/>
<path d="M10.6371 14.0666C9.84213 13.9778 9.021 13.9778 8.22604 14.0666C7.62738 14.1335 7.14223 14.6047 7.07134 15.2108C6.97621 16.0242 6.97621 16.8458 7.07134 17.6592C7.14223 18.2653 7.62738 18.7365 8.22605 18.8034C9.021 18.8922 9.84213 18.8922 10.6371 18.8034C11.2358 18.7365 11.7209 18.2653 11.7918 17.6592C11.8869 16.8458 11.8869 16.0242 11.7918 15.2108C11.7209 14.6047 11.2358 14.1335 10.6371 14.0666Z" fill="black"/>
<path d="M17.6371 14.0666C16.8421 13.9778 16.021 13.9778 15.226 14.0666C14.6274 14.1335 14.1422 14.6047 14.0713 15.2108C13.9762 16.0242 13.9762 16.8458 14.0713 17.6592C14.1422 18.2653 14.6274 18.7365 15.226 18.8034C16.021 18.8922 16.8421 18.8922 17.6371 18.8034C18.2358 18.7365 18.7209 18.2653 18.7918 17.6592C18.8869 16.8458 18.8869 16.0242 18.7918 15.2108C18.7209 14.6047 18.2358 14.1335 17.6371 14.0666Z" fill="black"/>
</svg>
