<svg width="19" height="19" viewBox="0 0 19 19" fill="none" xmlns="http://www.w3.org/2000/svg">
<path d="M10.6576 1.79169C10.6576 1.15311 10.1399 0.635437 9.5013 0.635437C8.86272 0.635437 8.34505 1.15311 8.34505 1.79169V8.34377H1.79297C1.15439 8.34377 0.636719 8.86144 0.636719 9.50002C0.636719 10.1386 1.15439 10.6563 1.79297 10.6563H8.34505V17.2084C8.34505 17.8469 8.86272 18.3646 9.5013 18.3646C10.1399 18.3646 10.6576 17.8469 10.6576 17.2084V10.6563H17.2096C17.8482 10.6563 18.3659 10.1386 18.3659 9.50002C18.3659 8.86144 17.8482 8.34377 17.2096 8.34377H10.6576V1.79169Z" fill="black"/>
</svg>
