<?xml version="1.0" encoding="utf-8"?>
<!-- Generator: Adobe Illustrator 24.3.0, SVG Export Plug-In . SVG Version: 6.00 Build 0)  -->
<svg version="1.1" id="Слой_1" xmlns="http://www.w3.org/2000/svg" xmlns:xlink="http://www.w3.org/1999/xlink" x="0px" y="0px"
	 width="20px" height="19px" viewBox="0 0 20 19" style="enable-background:new 0 0 20 19;" xml:space="preserve">
<path class="st0" d="M17,18.5H4c-1.9,0-3.5-1.6-3.5-3.5V1.9c0-1.1,1.1-1.7,2-1.4c0.1,0,0.3,0.1,0.4,0.2L3,0.8c0.9,0.6,2,0.6,2.9,0
	C7.2,0,8.8,0,10,0.8c0.9,0.6,2,0.6,2.9,0l0.2-0.1c1-0.7,2.4,0,2.4,1.2v7.6H19c0.4,0,0.8,0.3,0.8,0.7v5.5
	C19.8,17.3,18.5,18.5,17,18.5z M15.8,11v4.8c0,0.7,0.6,1.2,1.2,1.2s1.2-0.6,1.2-1.2V11H15.8z M11.5,6.8c0-0.4-0.3-0.8-0.8-0.8h-6
	C4.3,6,4,6.3,4,6.8c0,0.4,0.3,0.8,0.8,0.8h6C11.2,7.5,11.5,7.2,11.5,6.8z M10.5,9.8c0-0.4-0.3-0.8-0.8-0.8h-5C4.3,9,4,9.3,4,9.8
	c0,0.4,0.3,0.7,0.8,0.7h5C10.2,10.5,10.5,10.2,10.5,9.8z M10.8,12c0.4,0,0.8,0.3,0.8,0.8s-0.3,0.8-0.8,0.8h-6
	c-0.4,0-0.8-0.3-0.8-0.8S4.3,12,4.8,12H10.8z"/>
</svg>
