<?xml version="1.0" encoding="utf-8"?>
<!-- Generator: Adobe Illustrator 24.3.0, SVG Export Plug-In . SVG Version: 6.00 Build 0)  -->
<svg version="1.1" id="Слой_1" xmlns="http://www.w3.org/2000/svg" xmlns:xlink="http://www.w3.org/1999/xlink" x="0px" y="0px"
	 width="18px" height="21px" viewBox="0 0 18 21" style="enable-background:new 0 0 18 21;" xml:space="preserve">
<path class="st0" d="M0.8,7.9c0.3-4.2,3.8-7.4,8-7.4h0.4c4.2,0,7.7,3.2,8,7.4c0.2,2.2-0.5,4.5-1.9,6.2L10.5,20c-0.8,0.9-2.2,0.9-3,0
	l-4.8-5.9C1.3,12.4,0.6,10.1,0.8,7.9z M12.5,7.5c0.3-0.3,0.3-0.8,0-1.1c-0.3-0.3-0.8-0.3-1.1,0l-3,3L7,8C6.7,7.7,6.3,7.7,6,8
	S5.7,8.7,6,9l2,2c0.3,0.3,0.8,0.3,1.1,0L12.5,7.5z"/>
</svg>
