<?xml version="1.0" encoding="utf-8"?>
<!-- Generator: Adobe Illustrator 24.3.0, SVG Export Plug-In . SVG Version: 6.00 Build 0)  -->
<svg version="1.1" id="Слой_1" xmlns="http://www.w3.org/2000/svg" xmlns:xlink="http://www.w3.org/1999/xlink" x="0px" y="0px"
	 width="16px" height="20px" viewBox="0 0 16 20" style="enable-background:new 0 0 16 20;" xml:space="preserve">
<path class="st0" d="M10.2,0.5c0-0.1-0.1-0.2-0.2-0.2H3C1.5,0.2,0.2,1.5,0.2,3v14c0,1.5,1.2,2.8,2.8,2.8h10c1.5,0,2.8-1.2,2.8-2.8
	V7.1c0-0.1-0.1-0.2-0.2-0.2H11c-0.4,0-0.8-0.3-0.8-0.8V0.5z M8,8c-1.1,0-2,0.9-2,2c0,1.1,0.9,2,2,2s2-0.9,2-2C10,8.9,9.1,8,8,8z
	 M4,16.5c0-1.7,1.3-3,3-3h2c1.7,0,3,1.3,3,3c0,0.6-0.4,1-1,1H5C4.4,17.5,4,17.1,4,16.5z"/>
<path class="st1" d="M11.8,0.8c0-0.2,0.2-0.3,0.3-0.2c0.1,0.1,0.2,0.2,0.3,0.3l3,4.2c0.1,0.1,0,0.2-0.1,0.2H12
	c-0.1,0-0.2-0.1-0.2-0.2V0.8z"/>
</svg>
