<?xml version="1.0" encoding="utf-8"?>
<!-- Generator: Adobe Illustrator 24.3.0, SVG Export Plug-In . SVG Version: 6.00 Build 0)  -->
<svg version="1.1" id="Слой_1" xmlns="http://www.w3.org/2000/svg" xmlns:xlink="http://www.w3.org/1999/xlink" x="0px" y="0px"
	 width="18px" height="15px" viewBox="0 0 18 15" style="enable-background:new 0 0 18 15;" xml:space="preserve">
<path class="st0" d="M5.4,0.2C2.6,0.2,0.2,2.3,0.2,5c0,1.9,0.9,3.4,2,4.7c1.2,1.3,2.6,2.4,4,3.3l2.3,1.6c0.3,0.2,0.6,0.2,0.8,0
	l2.3-1.6c1.3-0.9,2.8-2,4-3.3c1.2-1.3,2-2.9,2-4.7c0-2.7-2.4-4.8-5.1-4.8c-1.4,0-2.7,0.7-3.6,1.5C8.1,0.9,6.8,0.2,5.4,0.2z"/>
</svg>
