<?xml version="1.0" encoding="utf-8"?>
<!-- Generator: Adobe Illustrator 24.3.0, SVG Export Plug-In . SVG Version: 6.00 Build 0)  -->
<svg version="1.1" id="Слой_1" xmlns="http://www.w3.org/2000/svg" xmlns:xlink="http://www.w3.org/1999/xlink" x="0px" y="0px"
	 width="16px" height="18px" viewBox="0 0 16 18" style="enable-background:new 0 0 16 18;" xml:space="preserve">
<path class="st0" d="M8,0.8c-2.1,0-3.8,1.7-3.8,3.8S5.9,8.2,8,8.2c2.1,0,3.8-1.7,3.8-3.8S10.1,0.8,8,0.8z"/>
<path class="st0" d="M4,10.2c-2.1,0-3.8,1.7-3.8,3.8v1.2c0,0.8,0.5,1.4,1.3,1.5c4.3,0.7,8.6,0.7,12.9,0c0.7-0.1,1.3-0.8,1.3-1.5V14
	c0-2.1-1.7-3.8-3.8-3.8h-0.3c-0.2,0-0.4,0-0.5,0.1l-0.9,0.3c-1.5,0.5-3,0.5-4.5,0l-0.9-0.3c-0.2-0.1-0.4-0.1-0.5-0.1H4z"/>
</svg>
