<?xml version="1.0" encoding="utf-8"?>
<!-- Generator: Adobe Illustrator 24.3.0, SVG Export Plug-In . SVG Version: 6.00 Build 0)  -->
<svg version="1.1" id="Слой_1" xmlns="http://www.w3.org/2000/svg" xmlns:xlink="http://www.w3.org/1999/xlink" x="0px" y="0px"
	 width="17px" height="18px" viewBox="0 0 17 18" style="enable-background:new 0 0 17 18;" xml:space="preserve">
<style type="text/css">
	.st0{fill-rule:evenodd;clip-rule:evenodd;}
</style>
<path class="st0" d="M4.1,4.8c0-2.4,2-4.3,4.4-4.3c2.4,0,4.4,1.9,4.4,4.3S10.9,9,8.5,9C6.1,9,4.1,7.1,4.1,4.8z M8.5,2
	C6.9,2,5.7,3.2,5.7,4.8s1.3,2.8,2.8,2.8s2.8-1.2,2.8-2.8S10.1,2,8.5,2z"/>
<path class="st0" d="M4.4,12C3.1,12,2,13,2,14.3v1.2c0,0,0,0,0,0c4.3,0.7,8.6,0.7,12.8,0c0,0,0,0,0,0v-1.2c0-1.2-1-2.3-2.3-2.3h-0.4
	c0,0-0.1,0-0.1,0l-0.9,0.3c-1.8,0.6-3.8,0.6-5.6,0L4.8,12c0,0-0.1,0-0.1,0H4.4z M0.5,14.3c0-2.1,1.7-3.8,3.9-3.8h0.4
	c0.2,0,0.4,0,0.6,0.1l0.9,0.3c1.5,0.5,3.1,0.5,4.6,0l0.9-0.3c0.2-0.1,0.4-0.1,0.6-0.1h0.4c2.1,0,3.9,1.7,3.9,3.8v1.2
	c0,0.8-0.6,1.4-1.3,1.5c-4.4,0.7-8.9,0.7-13.3,0c-0.8-0.1-1.3-0.8-1.3-1.5V14.3z"/>
</svg>
