<?xml version="1.0" encoding="utf-8"?>
<!-- Generator: Adobe Illustrator 24.3.0, SVG Export Plug-In . SVG Version: 6.00 Build 0)  -->
<svg version="1.1" id="Слой_1" xmlns="http://www.w3.org/2000/svg" xmlns:xlink="http://www.w3.org/1999/xlink" x="0px" y="0px"
	 width="15px" height="18px" viewBox="0 0 15 18" style="enable-background:new 0 0 15 18;" xml:space="preserve">
<style type="text/css">
	.st0{fill-rule:evenodd;clip-rule:evenodd;fill:#84979C;}
</style>
<path class="st0" d="M10,5.7c0.2,0.2,0.2,0.6,0,0.8L7.4,9.1c-0.2,0.2-0.6,0.2-0.8,0L5.1,7.6C4.9,7.4,4.9,7,5.1,6.8
	c0.2-0.2,0.6-0.2,0.8,0L7,7.9l2.2-2.2C9.5,5.4,9.8,5.4,10,5.7z"/>
<path class="st0" d="M1,6.7C1.3,3.5,4,1,7.2,1h0.3c3.2,0,5.9,2.5,6.2,5.7c0.1,1.7-0.4,3.5-1.5,4.8l-3.6,4.4c-0.7,0.8-1.9,0.8-2.5,0
	l-3.6-4.4C1.4,10.2,0.9,8.4,1,6.7z M7.2,2.1c-2.6,0-4.9,2-5.1,4.7c-0.1,1.4,0.3,2.9,1.2,4L7,15.2c0.2,0.3,0.6,0.3,0.8,0l3.6-4.4
	c0.9-1.1,1.4-2.6,1.2-4c-0.2-2.6-2.4-4.7-5.1-4.7H7.2z"/>
</svg>
