<?xml version="1.0" encoding="utf-8"?>
<!-- Generator: Adobe Illustrator 24.3.0, SVG Export Plug-In . SVG Version: 6.00 Build 0)  -->
<svg version="1.1" id="Слой_1" xmlns="http://www.w3.org/2000/svg" xmlns:xlink="http://www.w3.org/1999/xlink" x="0px" y="0px"
	 width="16px" height="12px" viewBox="0 0 16 12" style="enable-background:new 0 0 16 12;" xml:space="preserve">
<style type="text/css">
	.st0{fill-rule:evenodd;clip-rule:evenodd;}
</style>
<path class="st0" d="M15.8,6c0-0.4-0.3-0.8-0.8-0.8H1C0.6,5.2,0.2,5.6,0.2,6S0.6,6.8,1,6.8h14C15.4,6.8,15.8,6.4,15.8,6z"/>
<path class="st0" d="M15.8,1c0-0.4-0.3-0.8-0.8-0.8H1C0.6,0.2,0.2,0.6,0.2,1c0,0.4,0.3,0.8,0.8,0.8h14C15.4,1.8,15.8,1.4,15.8,1z"/>
<path class="st0" d="M15.8,11c0-0.4-0.3-0.8-0.8-0.8H1c-0.4,0-0.8,0.3-0.8,0.8s0.3,0.8,0.8,0.8h14C15.4,11.8,15.8,11.4,15.8,11z"/>
</svg>
