<svg width="29" height="29" viewBox="0 0 29 29" fill="none" xmlns="http://www.w3.org/2000/svg">
<path d="M14.5 12.4688C15.1731 12.4688 15.7188 13.0144 15.7188 13.6875V21.8125C15.7188 22.4856 15.1731 23.0312 14.5 23.0312C13.8269 23.0312 13.2812 22.4856 13.2812 21.8125V13.6875C13.2812 13.0144 13.8269 12.4688 14.5 12.4688Z" fill="#EB9393"/>
<path d="M14.5 9.625C15.3975 9.625 16.125 8.89746 16.125 8C16.125 7.10254 15.3975 6.375 14.5 6.375C13.6025 6.375 12.875 7.10254 12.875 8C12.875 8.89746 13.6025 9.625 14.5 9.625Z" fill="#EB9393"/>
<path fill-rule="evenodd" clip-rule="evenodd" d="M0.28125 14.5C0.28125 6.6472 6.6472 0.28125 14.5 0.28125C22.3528 0.28125 28.7188 6.6472 28.7188 14.5C28.7188 22.3528 22.3528 28.7188 14.5 28.7188C6.6472 28.7188 0.28125 22.3528 0.28125 14.5ZM14.5 2.71875C7.99339 2.71875 2.71875 7.99339 2.71875 14.5C2.71875 21.0066 7.99339 26.2812 14.5 26.2812C21.0066 26.2812 26.2812 21.0066 26.2812 14.5C26.2812 7.99339 21.0066 2.71875 14.5 2.71875Z" fill="#EB9393"/>
</svg>
