<svg width="22" height="16" viewBox="0 0 22 16" fill="none" xmlns="http://www.w3.org/2000/svg">
<path fill-rule="evenodd" clip-rule="evenodd" d="M18.185 0.666125L11.0009 0.499817L3.81677 0.666125C2.36502 0.695626 1.13427 1.74215 0.871791 3.17028C0.284924 6.36337 0.284924 9.63668 0.871791 12.8298C1.13427 14.2579 2.36502 15.3044 3.81677 15.3339L11.0009 15.5002L18.185 15.3339C19.6367 15.3044 20.8675 14.2579 21.1299 12.8298C21.7168 9.63668 21.7168 6.36337 21.1299 3.17028C20.8675 1.74215 19.6367 0.695626 18.185 0.666125ZM20.0009 7C20.0009 7.55228 19.5531 8 19.0009 8H3.00085C2.44857 8 2.00085 7.55228 2.00085 7C2.00085 6.44772 2.44857 6 3.00085 6H19.0009C19.5531 6 20.0009 6.44772 20.0009 7Z" fill="#DCDCDC"/>
</svg>
