<svg width="20" height="19" viewBox="0 0 20 19" fill="none" xmlns="http://www.w3.org/2000/svg">
<path fill-rule="evenodd" clip-rule="evenodd" d="M17 18.5002H4C2.067 18.5002 0.5 16.9332 0.5 15.0002V1.9434C0.5 0.875844 1.55584 0.199046 2.4849 0.521599C2.61762 0.567678 2.74776 0.634152 2.87186 0.722795L3.0469 0.847829C3.91493 1.46785 5.08891 1.4651 5.95938 0.843339C7.17632 -0.0259047 8.82368 -0.0259047 10.0406 0.843339C10.9111 1.4651 12.0851 1.46785 12.9531 0.847829L13.1281 0.722795C14.1209 0.0136501 15.5 0.723337 15.5 1.9434V9.5002H19C19.4142 9.5002 19.75 9.83599 19.75 10.2502V15.7502C19.75 17.269 18.5188 18.5002 17 18.5002ZM15.75 11.0002V15.7502C15.75 16.4406 16.3096 17.0002 17 17.0002C17.6904 17.0002 18.25 16.4406 18.25 15.7502V11.0002H15.75ZM11.5 6.7502C11.5 6.33599 11.1642 6.0002 10.75 6.0002H4.75C4.33579 6.0002 4 6.33599 4 6.7502C4 7.16441 4.33579 7.5002 4.75 7.5002H10.75C11.1642 7.5002 11.5 7.16441 11.5 6.7502ZM10.5 9.7502C10.5 9.33599 10.1642 9.0002 9.75 9.0002H4.75C4.33579 9.0002 4 9.33599 4 9.7502C4 10.1644 4.33579 10.5002 4.75 10.5002H9.75C10.1642 10.5002 10.5 10.1644 10.5 9.7502ZM10.75 12.0002C11.1642 12.0002 11.5 12.336 11.5 12.7502C11.5 13.1644 11.1642 13.5002 10.75 13.5002H4.75C4.33579 13.5002 4 13.1644 4 12.7502C4 12.336 4.33579 12.0002 4.75 12.0002H10.75Z" fill="#C4C4C4"/>
</svg>
