<svg width="46" height="49" viewBox="0 0 46 49" fill="none" xmlns="http://www.w3.org/2000/svg">
<path d="M22.25 21.6667C22.25 19.5956 23.929 17.9167 26 17.9167C28.0711 17.9167 29.75 19.5956 29.75 21.6667C29.75 23.7377 28.0711 25.4167 26 25.4167C23.929 25.4167 22.25 23.7377 22.25 21.6667Z" fill="#DDDDDD"/>
<path fill-rule="evenodd" clip-rule="evenodd" d="M18.4561 12.7374C18.4561 9.84487 20.801 7.5 23.6935 7.5H28.3064C31.199 7.5 33.5438 9.84487 33.5438 12.7374C33.5438 12.7621 33.5628 12.7827 33.5875 12.7847L37.3035 13.0865C38.968 13.2217 40.337 14.4526 40.6476 16.0935C41.4405 20.2807 41.4996 24.5738 40.8224 28.7812L40.6603 29.7882C40.3547 31.6864 38.7925 33.1305 36.8762 33.2861L33.6389 33.549C28.5547 33.9619 23.4453 33.9619 18.361 33.549L15.1238 33.2861C13.2075 33.1305 11.6452 31.6864 11.3397 29.7882L11.1776 28.7812C10.5004 24.5738 10.5595 20.2807 11.3523 16.0935C11.663 14.4526 13.0319 13.2217 14.6965 13.0865L18.4125 12.7847C18.4371 12.7827 18.4561 12.7621 18.4561 12.7374ZM26 15.4167C22.5482 15.4167 19.75 18.2149 19.75 21.6667C19.75 25.1184 22.5482 27.9167 26 27.9167C29.4518 27.9167 32.25 25.1184 32.25 21.6667C32.25 18.2149 29.4518 15.4167 26 15.4167Z" fill="#DDDDDD"/>
<circle cx="13.5" cy="34.5" r="9.5" fill="white"/>
<path d="M12.75 32C12.75 31.5858 12.4142 31.25 12 31.25C11.5858 31.25 11.25 31.5858 11.25 32V36.25H7C6.58579 36.25 6.25 36.5858 6.25 37C6.25 37.4142 6.58579 37.75 7 37.75H11.25V42C11.25 42.4142 11.5858 42.75 12 42.75C12.4142 42.75 12.75 42.4142 12.75 42V37.75H17C17.4142 37.75 17.75 37.4142 17.75 37C17.75 36.5858 17.4142 36.25 17 36.25H12.75V32Z" fill="#C4C4C4"/>
</svg>
