<svg width="22" height="16" viewBox="0 0 22 16" fill="none" xmlns="http://www.w3.org/2000/svg">
<path fill-rule="evenodd" clip-rule="evenodd" d="M18.184 0.666308L10.9999 0.5L3.8158 0.666308C2.36404 0.695809 1.13329 1.74233 0.870814 3.17046C0.283947 6.36355 0.283947 9.63686 0.870814 12.83C1.13329 14.2581 2.36404 15.3046 3.81579 15.3341L10.9999 15.5004L18.184 15.3341C19.6357 15.3046 20.8665 14.2581 21.129 12.83C21.7158 9.63686 21.7158 6.36355 21.129 3.17046C20.8665 1.74233 19.6357 0.695809 18.184 0.666308ZM19.9999 7.00018C19.9999 7.55247 19.5522 8.00018 18.9999 8.00018H2.99988C2.44759 8.00018 1.99988 7.55247 1.99988 7.00018C1.99988 6.4479 2.44759 6.00018 2.99988 6.00018H18.9999C19.5522 6.00018 19.9999 6.4479 19.9999 7.00018Z" fill="#C4C4C4"/>
</svg>
