<?xml version="1.0" encoding="utf-8"?>
<!-- Generator: Adobe Illustrator 24.3.0, SVG Export Plug-In . SVG Version: 6.00 Build 0)  -->
<svg version="1.1" id="Слой_1" xmlns="http://www.w3.org/2000/svg" xmlns:xlink="http://www.w3.org/1999/xlink" x="0px" y="0px"
	 width="22px" height="22px" viewBox="0 0 22 22" style="enable-background:new 0 0 22 22;" xml:space="preserve">
<style type="text/css">
	.st0{fill:#B0B0B0;}
	.st1{fill-rule:evenodd;clip-rule:evenodd;fill:#B0B0B0;}
</style>
<path class="st0" d="M8.3,4.4c0.5,0,0.9,0.4,0.9,0.9v2.1h2.1c0.5,0,0.9,0.4,0.9,0.9c0,0.5-0.4,0.9-0.9,0.9H9.2v2.1
	c0,0.5-0.4,0.9-0.9,0.9c-0.5,0-0.9-0.4-0.9-0.9V9.2H5.3c-0.5,0-0.9-0.4-0.9-0.9c0-0.5,0.4-0.9,0.9-0.9h2.1V5.3
	C7.4,4.8,7.8,4.4,8.3,4.4z"/>
<path class="st1" d="M2.5,14.1c3,3,7.7,3.2,10.9,0.6l6.2,6.2c0.4,0.4,0.9,0.4,1.3,0c0.4-0.4,0.4-0.9,0-1.3l-6.2-6.2
	c2.6-3.2,2.4-7.9-0.6-10.9c-3.2-3.2-8.3-3.2-11.5,0C-0.7,5.7-0.7,10.9,2.5,14.1z M3.8,3.8c-2.5,2.5-2.5,6.5,0,9c2.5,2.5,6.5,2.5,9,0
	l0,0l0,0c2.5-2.5,2.5-6.5,0-9C10.3,1.3,6.3,1.3,3.8,3.8z"/>
</svg>
