<?xml version="1.0" encoding="utf-8"?>
<!-- Generator: Adobe Illustrator 24.3.0, SVG Export Plug-In . SVG Version: 6.00 Build 0)  -->
<svg version="1.1" id="Слой_1" xmlns="http://www.w3.org/2000/svg" xmlns:xlink="http://www.w3.org/1999/xlink" x="0px" y="0px"
	 width="24px" height="24px" viewBox="0 0 24 24" style="enable-background:new 0 0 24 24;" xml:space="preserve">
<path d="M6.5,8.2C6.3,8.1,6.2,8,6.1,7.8C6,7.6,6,7.3,6.1,7.1l1.7-3.5c0.1-0.3,0.4-0.4,0.7-0.4c0.3,0,0.6,0.2,0.7,0.4l0.7,1.6
	c0,0,0.1,0,0.1,0c4.3-1.2,8.8,1.4,10,5.8c1.2,4.3-1.4,8.8-5.8,10c-4.3,1.2-8.8-1.4-10-5.8c-0.4-1.4-0.4-2.8,0-4.1
	c0.1-0.4,0.5-0.6,0.9-0.5c0.4,0.1,0.6,0.5,0.5,0.9c-0.3,1.1-0.3,2.2,0,3.3c1,3.5,4.6,5.7,8.1,4.7c3.5-1,5.7-4.6,4.7-8.1
	c-0.9-3.5-4.5-5.6-8-4.7l0.7,1.6c0.1,0.3,0.1,0.6-0.1,0.8c-0.2,0.2-0.5,0.3-0.8,0.2L6.5,8.2z"/>
</svg>
