<svg width="17" height="13" viewBox="0 0 17 13" fill="none" xmlns="http://www.w3.org/2000/svg">
<path d="M3.64645 12.3536C3.84171 12.5488 4.15829 12.5488 4.35355 12.3536L7.53553 9.17157C7.7308 8.97631 7.7308 8.65973 7.53553 8.46447C7.34027 8.2692 7.02369 8.2692 6.82843 8.46447L4 11.2929L1.17157 8.46447C0.976311 8.2692 0.659728 8.2692 0.464466 8.46447C0.269204 8.65973 0.269204 8.97631 0.464466 9.17157L3.64645 12.3536ZM4.5 12L4.5 1.2L3.5 1.2L3.5 12L4.5 12Z" fill="#70CFBE"/>
<path d="M13.3536 0.846446C13.1583 0.651184 12.8417 0.651184 12.6464 0.846446L9.46447 4.02843C9.2692 4.22369 9.2692 4.54027 9.46447 4.73553C9.65973 4.9308 9.97631 4.9308 10.1716 4.73553L13 1.90711L15.8284 4.73553C16.0237 4.9308 16.3403 4.9308 16.5355 4.73553C16.7308 4.54027 16.7308 4.22369 16.5355 4.02843L13.3536 0.846446ZM13.5 12L13.5 1.2L12.5 1.2L12.5 12L13.5 12Z" fill="#70CFBE"/>
</svg>
