<?xml version="1.0" encoding="utf-8"?>
<!-- Generator: Adobe Illustrator 24.3.0, SVG Export Plug-In . SVG Version: 6.00 Build 0)  -->
<svg version="1.1" id="Слой_1" xmlns="http://www.w3.org/2000/svg" xmlns:xlink="http://www.w3.org/1999/xlink" x="0px" y="0px"
	 width="17px" height="17px" viewBox="0 0 17 17" style="enable-background:new 0 0 17 17;" xml:space="preserve">
<style type="text/css">
	.st0{fill:#FFFFFF;}
</style>
<path class="st0" d="M1.4,15.3l0.9-3.5c-0.6-1.1-0.9-2.3-0.9-3.5c0-3.8,3.1-6.9,6.9-6.9c3.8,0,6.9,3.1,6.9,6.9
	c0,3.8-3.1,6.9-6.9,6.9c-1.2,0-2.4-0.3-3.5-0.9L1.4,15.3z M5.8,5.1c-0.1,0-0.2,0-0.3,0.1c-0.1,0-0.1,0.1-0.2,0.2
	C5.3,5.4,5.2,5.5,5.2,5.5C4.9,5.9,4.8,6.3,4.8,6.7c0,0.3,0.1,0.7,0.2,1C5.3,8.3,5.8,9,6.4,9.6C6.5,9.7,6.7,9.9,6.8,10
	c0.8,0.7,1.7,1.2,2.7,1.4l0.4,0.1c0.1,0,0.3,0,0.4,0c0.2,0,0.4-0.1,0.6-0.2c0.1-0.1,0.2-0.1,0.3-0.2c0,0,0,0,0.1-0.1
	c0.1-0.1,0.2-0.1,0.2-0.2c0.1-0.1,0.1-0.1,0.1-0.2c0.1-0.1,0.1-0.3,0.1-0.5c0-0.1,0-0.2,0-0.3c0-0.1-0.1-0.2-0.1-0.2l-0.4-0.2
	c0,0-0.6-0.3-1-0.4c0,0-0.1,0-0.1,0c0,0-0.1,0-0.1,0c0,0-0.1,0-0.1,0.1v0c0,0-0.1,0-0.6,0.6c0,0-0.1,0.1-0.1,0.1c0,0-0.1,0-0.1,0
	c0,0-0.1,0-0.1,0c-0.1,0-0.1-0.1-0.2-0.1l0,0C8.3,9.6,8,9.4,7.6,9.1C7.5,9,7.5,8.9,7.4,8.9C7.1,8.6,6.9,8.3,6.7,8l0-0.1
	c0,0-0.1-0.1-0.1-0.1c0-0.1,0-0.2,0-0.2s0.2-0.2,0.2-0.3C6.9,7.2,7,7.1,7,7c0.1-0.1,0.1-0.3,0.1-0.4C6.9,6.2,6.7,5.7,6.5,5.3
	c0-0.1-0.2-0.2-0.3-0.2c0,0-0.1,0-0.1,0C6,5.1,5.9,5.1,5.8,5.1L5.8,5.1z"/>
</svg>
