<?xml version="1.0" encoding="utf-8"?>
<!-- Generator: Adobe Illustrator 24.3.0, SVG Export Plug-In . SVG Version: 6.00 Build 0)  -->
<svg version="1.1" id="Слой_1" xmlns="http://www.w3.org/2000/svg" xmlns:xlink="http://www.w3.org/1999/xlink" x="0px" y="0px"
	 width="19px" height="16px" viewBox="0 0 19 16" style="enable-background:new 0 0 19 16;" xml:space="preserve">
<style type="text/css">
	.st0{fill-rule:evenodd;clip-rule:evenodd;}
</style>
<path class="st0" d="M0.5,5.4c0-2.8,2.4-4.9,5.3-4.9c1.5,0,2.8,0.7,3.7,1.6c0.9-0.9,2.2-1.6,3.7-1.6c2.9,0,5.3,2.2,5.3,4.9
	c0,1.9-0.8,3.6-1.9,5c-1.1,1.4-2.6,2.6-4,3.6c-0.5,0.4-1.1,0.7-1.6,1c-0.5,0.2-1,0.5-1.5,0.5S8.5,15.3,8,15c-0.5-0.3-1-0.6-1.6-1
	c-1.4-1-2.9-2.2-4-3.6C1.3,9,0.5,7.4,0.5,5.4z M5.8,2.1C3.7,2.1,2,3.6,2,5.4c0,1.5,0.6,2.8,1.6,4.1c1,1.3,2.3,2.4,3.7,3.3
	c0.5,0.4,1,0.7,1.4,0.9c0.4,0.2,0.7,0.3,0.8,0.3s0.4-0.1,0.8-0.3c0.4-0.2,0.9-0.5,1.4-0.9c1.3-0.9,2.7-2,3.7-3.3
	c1-1.2,1.6-2.6,1.6-4.1c0-1.8-1.6-3.4-3.8-3.4c-1.2,0-2.4,0.7-3.1,1.7C10,3.9,9.7,4,9.5,4S9,3.9,8.9,3.7C8.2,2.8,7,2.1,5.8,2.1z"/>
</svg>
