<svg xmlns="http://www.w3.org/2000/svg" viewBox="0 0 355.1 60.7"><path d="M149.8 9.4h4.6l11 25.2h-6.3l-2.2-5.3h-9.8l-2.1 5.3h-6.1l10.9-25.2zm2.1 7.4l-3.1 7.8h6.2l-3.1-7.8zm18.4-7.4h8.4l5.8 16.5h.1l5.8-16.5h8.4v25.2h-5.6V15.3h-.1l-6.6 19.4h-4.2l-6.4-19.4h-.1v19.4h-5.6V9.4zm36.9 0h17.2v5.1h-11.6v4.7h10.9v5.1h-10.9v5.1H225v5.1h-17.8V9.4zm26.1 0h9.8c5.2 0 9.5 1.8 9.5 7.7 0 3.5-1.9 6.3-5.5 6.9l6.4 10.7h-6.7l-5.3-10.1h-2.7v10.1h-5.6V9.4zm5.5 10.5h3.3c2 0 4.7-.1 4.7-2.8 0-2.5-2.3-2.9-4.3-2.9h-3.6l-.1 5.7zm21.3-10.5h5.6v25.2h-5.6V9.4zM291 16c-1.1-1.3-2.7-2.1-4.8-2.1-4.2 0-7.3 3.4-7.3 8.1 0 4.7 3.1 8.1 7.1 8.1 2.2 0 4.1-1 5.2-2.7l4.6 3.5c-2.1 3-5.7 4.4-9.1 4.4-7.9 0-13.6-5.2-13.6-13.3 0-8.1 5.7-13.3 13.6-13.3 2.8 0 6.4 1 8.5 3.7L291 16zm18.7-6.6h4.6l11 25.2H319l-2.2-5.3H307l-2.1 5.3h-6.1l10.9-25.2zm2.2 7.4l-3.1 7.8h6.2l-3.1-7.8zm19.2-7.4h7.6L349.4 27h.1V9.4h5.6v25.2h-7.3l-11-18h-.1v18h-5.6V9.4zM145.9 43.5c2 0 3.7.6 5 1.8 1.3 1.2 2 2.7 2 4.6 0 1.8-.7 3.3-2 4.5-1.3 1.2-3 1.8-5.1 1.8-1.9 0-3.6-.6-4.9-1.8-1.3-1.2-1.9-2.7-1.9-4.5 0-1.9.7-3.4 2-4.6 1.2-1.2 2.9-1.8 4.9-1.8zm0 1.7c-1.5 0-2.7.4-3.7 1.3s-1.4 2-1.4 3.4c0 1.3.5 2.5 1.4 3.3 1 .9 2.2 1.3 3.6 1.3s2.6-.5 3.6-1.4 1.4-2 1.4-3.4c0-1.3-.5-2.4-1.4-3.3-.9-.8-2.1-1.2-3.5-1.2zm13.8 10.9V43.7h3.2c1.3 0 2.3.3 3.1.9.8.6 1.2 1.5 1.2 2.5 0 .7-.2 1.3-.6 1.9-.4.5-.9.9-1.6 1.2.4.3.8.6 1.2 1.1.4.5 1 1.2 1.7 2.4.5.7.8 1.2 1.1 1.6l.7.9h-2.2l-.6-.8s-.1-.1-.1-.2l-.4-.5-.6-.9-.6-1c-.4-.5-.7-.9-1.1-1.2-.3-.3-.6-.5-.9-.7-.3-.1-.7-.2-1.3-.2h-.5v5.4h-1.7zm2.4-10.9h-.6v3.9h.7c.9 0 1.6-.1 1.9-.2.3-.2.6-.4.8-.7s.3-.7.3-1.1c0-.4-.1-.7-.3-1.1-.2-.3-.5-.5-.9-.7-.3-.1-.9-.1-1.9-.1zm13.9-1.6h10.8v1.6h-4.5v10.9h-1.9V45.2H176v-1.6zm27.9.1h1.9v12.4h-1.9v-5.4h-7.3v5.4h-1.9V43.7h1.9V49h7.3v-5.3zm17.1-.2c2 0 3.7.6 5 1.8 1.3 1.2 2 2.7 2 4.6 0 1.8-.7 3.3-2 4.5-1.3 1.2-3 1.8-5.1 1.8-1.9 0-3.6-.6-4.9-1.8-1.3-1.2-1.9-2.7-1.9-4.5 0-1.9.7-3.4 2-4.6 1.2-1.2 2.9-1.8 4.9-1.8zm0 1.7c-1.5 0-2.7.4-3.7 1.3s-1.4 2-1.4 3.4c0 1.3.5 2.5 1.4 3.3 1 .9 2.2 1.3 3.6 1.3s2.6-.5 3.6-1.4c1-.9 1.4-2 1.4-3.4 0-1.3-.5-2.4-1.4-3.3-.9-.8-2.1-1.2-3.5-1.2zm15.5 10.9V43.7h4.4c1.8 0 3.2.3 4.2.8s1.8 1.3 2.4 2.2c.6 1 .9 2.1.9 3.2 0 .8-.2 1.6-.5 2.4-.3.8-.8 1.4-1.4 2-.6.6-1.4 1-2.2 1.3-.5.2-.9.3-1.3.4s-1.2.1-2.3.1h-4.2zm4.2-10.9h-2.3v9.2h2.4c.9 0 1.6-.1 2.2-.2s.9-.3 1.3-.5c.3-.2.7-.4.9-.7.9-.9 1.4-2 1.4-3.4 0-1.3-.5-2.4-1.4-3.3-.3-.3-.7-.6-1.2-.8-.4-.2-.9-.3-1.3-.4-.5.2-1.1.1-2 .1zm22.6-1.7c2 0 3.7.6 5 1.8 1.3 1.2 2 2.7 2 4.6 0 1.8-.7 3.3-2 4.5-1.3 1.2-3 1.8-5.1 1.8-2 0-3.6-.6-4.9-1.8-1.3-1.2-1.9-2.7-1.9-4.5 0-1.9.7-3.4 2-4.6 1.3-1.2 2.9-1.8 4.9-1.8zm.1 1.7c-1.5 0-2.7.4-3.7 1.3s-1.4 2-1.4 3.4c0 1.3.5 2.5 1.4 3.3 1 .9 2.2 1.3 3.6 1.3s2.6-.5 3.6-1.4c1-.9 1.4-2 1.4-3.4 0-1.3-.5-2.4-1.4-3.3-.9-.8-2.1-1.2-3.5-1.2zm25.7-1.5h1.8v12.4h-1.6l-8.7-9.6v9.6h-1.7V43.7h1.5l8.7 9.6v-9.6zm9.7-.1h10.8v1.6h-4.5v10.9h-1.9V45.2h-4.4v-1.6zm18.9.1h1.9v12.4h-1.9V43.7zm22.1 9.5v2c-1.4.7-2.9 1.1-4.7 1.1-1.4 0-2.7-.3-3.7-.8s-1.8-1.3-2.4-2.3c-.6-1-.9-2-.9-3.2 0-1.8.7-3.3 2-4.6 1.3-1.2 3-1.8 5-1.8 1.4 0 2.9.3 4.5 1v1.9c-1.5-.8-3-1.2-4.4-1.2-1.5 0-2.7.4-3.7 1.3s-1.5 2-1.5 3.4.5 2.5 1.4 3.4c1 .9 2.2 1.3 3.7 1.3 1.7-.1 3.2-.6 4.7-1.5zm11.7-2.3l-1.4-.8c-.9-.5-1.5-1-1.9-1.5-.4-.5-.6-1.1-.6-1.7 0-1 .4-1.8 1.1-2.4.7-.6 1.6-.9 2.8-.9 1.1 0 2.1.3 3 .9v2c-.9-.9-1.9-1.3-3-1.3-.6 0-1.1.1-1.5.4-.4.3-.6.6-.6 1s.1.7.4 1c.3.3.7.7 1.4 1l1.4.8c1.6.9 2.4 2.1 2.4 3.5 0 1-.3 1.8-1 2.4-.7.6-1.6.9-2.7.9-1.3 0-2.4-.4-3.5-1.1v-2.3c1 1.2 2.2 1.8 3.5 1.8.6 0 1.1-.2 1.4-.5.4-.3.6-.7.6-1.2-.1-.6-.6-1.3-1.8-2zM49.7 60.4h17L32.8 2.6 0 60.4h16.4S27 49.8 35.6 49.8c3 0 4.7 1.4 4.7 1.4s-2-4.4-10.5-4.6c-1.4 0-3.3 0-5.4-.1l8.5-15 16.8 28.9zm40.6-13.3c-9.2 0-16.7-7.5-16.7-16.7s7.5-16.7 16.7-16.7S107 21.2 107 30.4s-7.5 16.7-16.7 16.7m0-47.1C73.5 0 59.9 13.6 59.9 30.4s13.6 30.4 30.4 30.4 30.4-13.6 30.4-30.4S107.1 0 90.3 0" fill="#19388a"/></svg>