<svg width="172" height="28" fill="none" xmlns="http://www.w3.org/2000/svg"><path d="M37.523 22V4.937H43.5c2.07 0 3.64.399 4.71 1.196 1.071.789 1.606 1.949 1.606 3.48 0 .836-.214 1.575-.644 2.215-.43.633-1.027 1.098-1.793 1.395.875.218 1.562.66 2.062 1.324.508.664.762 1.476.762 2.437 0 1.641-.523 2.883-1.57 3.727-1.047.844-2.54 1.273-4.477 1.289h-6.633zm3.516-7.43v4.606h3.012c.828 0 1.472-.195 1.933-.586.47-.399.703-.945.703-1.64 0-1.563-.808-2.356-2.425-2.38h-3.223zm0-2.484h2.602c1.773-.031 2.66-.738 2.66-2.121 0-.774-.227-1.328-.68-1.664-.445-.344-1.152-.516-2.121-.516h-2.46v4.3zM66.74 22h-3.516v-7.313h-6.856V22h-3.515V4.937h3.515v6.915h6.856V4.937h3.515V22zm3.034-1.664c0-.54.18-.977.54-1.313.367-.335.824-.503 1.37-.503.555 0 1.012.168 1.372.503.367.336.55.774.55 1.313 0 .531-.18.965-.539 1.3-.359.329-.82.493-1.382.493-.555 0-1.012-.164-1.371-.492-.36-.336-.54-.77-.54-1.301z" fill="#69C5A5"/><path d="M81.398 4.938l4.383 12.375 4.36-12.375h4.617V22H91.23v-4.664l.351-8.05L86.977 22h-2.415L79.97 9.297l.351 8.039V22h-3.515V4.937h4.593zm26.274 13.546h-6.164L100.336 22h-3.738l6.351-17.063h3.258L112.594 22h-3.739l-1.183-3.516zm-5.215-2.847h4.266l-2.145-6.387-2.121 6.387zm18.047.117h-2.801V22h-3.515V4.937h6.339c2.016 0 3.571.45 4.664 1.348 1.094.899 1.641 2.168 1.641 3.809 0 1.164-.254 2.136-.762 2.918-.5.773-1.261 1.39-2.285 1.851l3.692 6.973V22h-3.774l-3.199-6.246zm-2.801-2.848h2.836c.883 0 1.566-.222 2.051-.668.484-.453.726-1.074.726-1.863 0-.805-.23-1.438-.691-1.898-.453-.461-1.152-.692-2.098-.692h-2.824v5.121zm17.156 2.25l-1.828 1.969V22h-3.515V4.937h3.515v7.735l1.547-2.121 4.348-5.614h4.324l-6.059 7.583 6.235 9.48h-4.184l-4.383-6.844zm20.157-.55h-6.75v4.57h7.922V22H144.75V4.937h11.414v2.848h-7.898v4.067h6.75v2.753zm16.312-6.82h-5.226V22h-3.516V7.785h-5.156V4.937h13.898v2.848z" fill="#3D3D3D"/><path d="M6 4h6L6 23H0L6 4zm9 0h6l-6 19H9l6-19zm9 0h6l-6 19h-6l6-19z" fill="#C4C4C4"/></svg>