<svg id="Ebene_1" data-name="Ebene 1" xmlns="http://www.w3.org/2000/svg" viewBox="0 0 347.39 115.09"><defs><style>.cls-1{fill:#4d4d4d;}.cls-2{fill:#147dd6;}</style></defs><title>Logo-Blau-auf-weiss-WEB</title><path class="cls-1" d="M1.63,100.75c0-4.66,3.5-8,8.42-8,3,0,5.44,1.25,6.63,3.61L13.89,98A4.4,4.4,0,0,0,10,95.89a4.86,4.86,0,0,0,0,9.72,4.39,4.39,0,0,0,3.87-2.16l2.79,1.63a7.06,7.06,0,0,1-6.63,3.64C5.13,108.72,1.63,105.41,1.63,100.75Z"/><path class="cls-1" d="M17.88,100.75c0-4.66,3.49-8,8.26-8s8.3,3.29,8.3,8-3.46,8-8.3,8S17.88,105.41,17.88,100.75Zm12.89,0a4.62,4.62,0,1,0-4.63,4.86A4.53,4.53,0,0,0,30.77,100.75Z"/><path class="cls-1" d="M63.49,99.61v8.91H59.85v-8.44c0-2.77-1.28-4.11-3.49-4.11-2.39,0-4,1.58-4,4.66v7.89H48.67v-8.44c0-2.77-1.28-4.11-3.49-4.11-2.42,0-4,1.58-4,4.66v7.89H37.5V93H41v2a6.45,6.45,0,0,1,5.09-2.15,5.81,5.81,0,0,1,5.24,2.59,7.28,7.28,0,0,1,5.83-2.59C60.87,92.8,63.49,94.93,63.49,99.61Z"/><path class="cls-1" d="M84.22,100.75a7.57,7.57,0,0,1-7.89,8,6.4,6.4,0,0,1-5-2.09v7.54H67.71V93h3.47v2a6.41,6.41,0,0,1,5.15-2.21A7.56,7.56,0,0,1,84.22,100.75Zm-3.7,0a4.62,4.62,0,1,0-4.6,4.86A4.52,4.52,0,0,0,80.52,100.75Z"/><path class="cls-1" d="M101.8,101.91H89.6c.44,2.27,2.33,3.73,5,3.73A5.59,5.59,0,0,0,98.86,104l2,2.24a7.88,7.88,0,0,1-6.26,2.53c-5.21,0-8.59-3.34-8.59-8a7.74,7.74,0,0,1,8-8c4.54,0,7.86,3.17,7.86,8C101.86,101.13,101.83,101.56,101.8,101.91ZM89.57,99.5h8.82A4.22,4.22,0,0,0,94,95.71,4.31,4.31,0,0,0,89.57,99.5Z"/><path class="cls-1" d="M114.26,107.68a5.75,5.75,0,0,1-3.49,1c-3.41,0-5.36-1.8-5.36-5.24V96h-2.56V93.09h2.56V89.54h3.64v3.55h4.16V96h-4.16v7.4c0,1.51.76,2.33,2.15,2.33a3.25,3.25,0,0,0,2-.65Z"/><path class="cls-1" d="M130.85,101.91H118.66c.43,2.27,2.32,3.73,5,3.73a5.57,5.57,0,0,0,4.22-1.69l2,2.24a7.87,7.87,0,0,1-6.26,2.53c-5.21,0-8.58-3.34-8.58-8a7.73,7.73,0,0,1,8-8c4.54,0,7.86,3.17,7.86,8C130.91,101.13,130.88,101.56,130.85,101.91ZM118.63,99.5h8.82a4.23,4.23,0,0,0-4.4-3.79A4.29,4.29,0,0,0,118.63,99.5Z"/><path class="cls-1" d="M149.28,99.61v8.91h-3.64v-8.44c0-2.77-1.37-4.11-3.7-4.11-2.59,0-4.33,1.58-4.33,4.69v7.86H134V93h3.46v2a6.78,6.78,0,0,1,5.36-2.18C146.51,92.8,149.28,94.93,149.28,99.61Z"/><path class="cls-1" d="M152.34,100.75c0-4.66,3.49-8,8.41-8,3,0,5.44,1.25,6.64,3.61L164.59,98a4.4,4.4,0,0,0-3.87-2.15,4.86,4.86,0,0,0,0,9.72,4.39,4.39,0,0,0,3.87-2.16l2.8,1.63a7.07,7.07,0,0,1-6.64,3.64C155.83,108.72,152.34,105.41,152.34,100.75Z"/><path class="cls-1" d="M184.41,101.91H172.22c.43,2.27,2.33,3.73,5,3.73a5.57,5.57,0,0,0,4.22-1.69l1.95,2.24a7.86,7.86,0,0,1-6.25,2.53c-5.21,0-8.59-3.34-8.59-8a7.73,7.73,0,0,1,8-8c4.54,0,7.86,3.17,7.86,8C184.47,101.13,184.44,101.56,184.41,101.91ZM172.19,99.5H181a4.23,4.23,0,0,0-4.4-3.79A4.3,4.3,0,0,0,172.19,99.5Z"/><path class="cls-1" d="M194.63,88.23A2.22,2.22,0,0,1,197,86.05a2.16,2.16,0,0,1,2.33,2.09,2.33,2.33,0,0,1-4.66.09Zm.5,4.75h3.64v15.54h-3.64Z"/><path class="cls-1" d="M218.41,99.61v8.91h-3.63v-8.44c0-2.77-1.37-4.11-3.7-4.11-2.59,0-4.34,1.58-4.34,4.69v7.86H203.1V93h3.47v2a6.76,6.76,0,0,1,5.35-2.18C215.65,92.8,218.41,94.93,218.41,99.61Z"/><path class="cls-1" d="M245.52,99.61v8.91h-3.64v-8.44c0-2.77-1.37-4.11-3.7-4.11-2.59,0-4.34,1.58-4.34,4.69v7.86H230.2V86.92h3.64v7.86a7,7,0,0,1,5.18-2C242.75,92.8,245.52,94.93,245.52,99.61Z"/><path class="cls-1" d="M264,93l-7.28,16.79c-1.42,3.52-3.4,4.6-6,4.6a6.39,6.39,0,0,1-4.16-1.43l1.45-2.67a3.94,3.94,0,0,0,2.68,1.07c1.28,0,2-.61,2.74-2.15l.26-.61L246.88,93h3.79l4.89,11.49L260.48,93Z"/><path class="cls-1" d="M280.8,93v13.18c0,5.65-2.94,8.21-8.39,8.21a12.35,12.35,0,0,1-7.56-2.21l1.63-2.74a9.34,9.34,0,0,0,5.73,1.87c3.44,0,5-1.58,5-4.72v-.82a6.84,6.84,0,0,1-5.21,2.07c-4.46,0-7.86-3-7.86-7.54s3.4-7.48,7.86-7.48A6.73,6.73,0,0,1,277.33,95V93Zm-3.58,7.3c0-2.62-2-4.39-4.72-4.39s-4.74,1.77-4.74,4.39a4.74,4.74,0,0,0,9.46,0Z"/><path class="cls-1" d="M284.64,88.23A2.22,2.22,0,0,1,287,86.05a2.16,2.16,0,0,1,2.33,2.09,2.33,2.33,0,0,1-4.66.09Zm.5,4.75h3.63v15.54h-3.63Z"/><path class="cls-1" d="M307.67,101.91h-12.2c.43,2.27,2.33,3.73,5,3.73a5.61,5.61,0,0,0,4.23-1.69l1.95,2.24a7.88,7.88,0,0,1-6.26,2.53c-5.21,0-8.59-3.34-8.59-8a7.73,7.73,0,0,1,8-8c4.54,0,7.86,3.17,7.86,8C307.72,101.13,307.69,101.56,307.67,101.91ZM295.44,99.5h8.82a4.23,4.23,0,0,0-4.4-3.79A4.3,4.3,0,0,0,295.44,99.5Z"/><path class="cls-1" d="M326.09,99.61v8.91h-3.64v-8.44c0-2.77-1.36-4.11-3.69-4.11-2.59,0-4.34,1.58-4.34,4.69v7.86h-3.64V93h3.46v2a6.8,6.8,0,0,1,5.36-2.18C323.33,92.8,326.09,94.93,326.09,99.61Z"/><path class="cls-1" d="M345,101.91h-12.2c.43,2.27,2.33,3.73,5,3.73A5.57,5.57,0,0,0,342,104l2,2.24a7.88,7.88,0,0,1-6.26,2.53c-5.21,0-8.59-3.34-8.59-8a7.73,7.73,0,0,1,8-8c4.54,0,7.86,3.17,7.86,8C345,101.13,345,101.56,345,101.91ZM332.76,99.5h8.82a4.23,4.23,0,0,0-4.4-3.79A4.3,4.3,0,0,0,332.76,99.5Z"/><path class="cls-2" d="M335.67,23.89c-5.27-2.48-11.37-4.7-18.46-4.37C298.82,20.15,297,35.2,297,41.71c0,3.12.57,10.93,5.89,16.2,3.18,3.14,7.41,4.67,12.6,4.66,6.33-.07,9.91-1.83,10.06-1.91l.34-.17,0-8.45H314.73V35.78H345V73.36c-3.37,1.56-30.5,13.36-52.8,1.25-10.61-6.33-16.94-18.82-16.94-33.42,0-27.7,19-39.1,37.08-40.19A62.55,62.55,0,0,1,342,6.49"/><polygon class="cls-2" points="67.51 78.85 88.02 78.85 88.02 2.4 55.64 2.4 44.77 49.71 33.89 2.4 1.51 2.4 1.51 78.83 22.02 78.83 22.06 26.28 36.52 78.85 53.06 78.85 67.54 26.24 67.51 78.85"/><polygon class="cls-2" points="92.8 78.83 154.04 78.83 154.04 60.17 115.49 60.17 115.49 49.24 147.51 49.24 147.51 32 115.49 32 115.49 21.07 153.41 21.07 153.41 2.41 92.8 2.41 92.8 78.83"/><polygon class="cls-2" points="158.67 78.83 197.54 78.83 204.27 60.17 181.35 60.17 181.35 2.41 158.67 2.41 158.67 78.83"/><polygon class="cls-2" points="253.13 2.41 230.61 2.41 202.46 78.83 225.15 78.83 241.93 25.21 249.53 51.44 238.72 51.44 233.3 68.73 254.54 68.73 257.51 78.83 280.95 78.83 253.13 2.41"/></svg>