<svg width="500" height="174" viewBox="0 0 500 174" fill="none" xmlns="http://www.w3.org/2000/svg">
<path d="M217.536 28.3308C210.037 28.3308 202.752 33.5187 202.752 45.3251C202.752 56.9821 207.858 63.0881 217.429 63.0881C225.398 63.0881 232.086 57.4945 232.086 45.56C232.107 34.5649 227.385 28.3308 217.536 28.3308ZM216.297 72.6528C200.338 72.6528 189.954 64.6893 189.954 46.478C189.954 30.9354 201.171 19.001 218.626 19.001C233.987 19.001 244.84 26.6869 244.84 44.8341C244.819 60.7183 233.282 72.6528 216.297 72.6528Z" fill="#A9A9A9"/>
<path d="M323.057 71.6281V38.7282C323.057 32.366 321.326 28.2242 314.725 28.2242C307.332 28.2242 299.919 35.6325 299.919 47.0332V71.6281H287.805V38.7282C287.805 32.8143 286.416 28.2242 279.473 28.2242C271.632 28.2242 264.838 36.1236 264.838 47.0332V71.6281H252.446V20.0472H264.24C264.24 22.844 264.026 27.0926 263.449 30.2097L263.663 30.3164C267.017 23.4845 274.174 19.0225 283.062 19.0225C294.407 19.0225 298.103 25.5768 299.043 30.1243C301.436 25.2565 307.781 19.0225 318.186 19.0225C329.167 19.0225 335.278 24.4453 335.278 36.0168V71.6494H323.057" fill="#A9A9A9"/>
<path d="M368.714 27.2848C361.791 27.2848 356.899 31.939 355.895 39.1125H380.272C380.485 31.8323 375.978 27.2848 368.714 27.2848ZM392.172 46.7984H355.638C355.296 58.5194 360.851 63.75 372.645 63.75C378.178 63.75 383.947 62.7253 389.181 60.7184L390.783 69.3436C384.758 71.4146 377.601 72.6742 370.444 72.6742C352.775 72.6742 342.969 64.3692 342.969 46.2006C342.969 30.7221 352.775 19.0225 369.397 19.0225C385.805 19.0225 392.621 28.7793 392.621 40.5002C392.621 42.1655 392.514 44.6207 392.172 46.7984Z" fill="#A9A9A9"/>
<path d="M422.104 27.1994C414.349 27.1994 409.841 31.6614 409.841 37.5967C409.841 44.0016 414.135 47.8659 421.869 47.8659C429.368 47.8659 434.004 44.0016 434.004 37.5967C434.004 31.2344 429.731 27.1994 422.104 27.1994ZM428.428 71.7135L417.959 71.3933H414.819C410.887 73.8912 408.345 77.0296 408.345 80.5309C408.345 86.0391 414.114 89.3697 422.446 89.3697C433.192 89.3697 439.089 84.993 439.089 79.3994C439.089 74.9373 435.863 72.0551 428.428 71.7135ZM420.502 97.995C405.461 97.995 396.082 92.5935 396.082 82.5164C396.082 76.8374 400.461 71.7349 405.439 69.2583C401.957 67.8919 399.799 65.0096 399.799 61.4656C399.799 57.7294 402.448 54.1854 406.379 52.5414C401.06 49.83 397.812 45.1758 397.812 38.4293C397.812 28.0534 406.38 19.0225 422.638 19.0225C426.035 19.0225 428.321 19.4281 431.312 20.0686H450.84V28.7579H442.059C444.494 30.6367 445.883 33.5403 445.883 36.9776C445.883 47.7592 437.807 55.6585 421.463 55.6585C419.412 55.6585 417.938 55.445 416.079 55.0394C413.879 55.9788 412.725 57.5373 412.725 58.8823C412.725 61.5937 415.374 62.405 422.232 62.6185L431.91 62.9174C444.387 63.3658 451.331 68.3402 451.331 77.8835C451.352 88.964 438.982 97.995 420.502 97.995Z" fill="#A9A9A9"/>
<path d="M487.267 47.9512C470.153 47.9512 465.453 52.093 465.453 57.0034C465.453 60.9531 468.444 63.9634 473.294 63.9634C481.626 63.9634 487.267 56.7046 487.267 49.3176V47.9512V47.9512ZM488.079 71.628C488.079 68.2974 488.207 64.8815 488.655 62.0846L488.57 61.9566C485.792 68.1053 478.614 72.6528 469.491 72.6528C459.663 72.6528 453.446 66.7176 453.446 58.3271C453.446 46.7129 466.244 40.4788 487.288 40.4788V38.2584C487.288 31.0208 484.404 27.5835 475.965 27.5835C470.645 27.5835 463.744 29.1421 458.638 31.2344L456.437 22.6091C462.227 20.5595 470.068 19.001 477.674 19.001C494.467 19.001 499.658 25.8329 499.658 37.0415V57.5158C499.658 61.9566 499.765 67.2726 500 71.628H488.079V71.628Z" fill="#A9A9A9"/>
<path d="M225.591 116.1C222.471 115.481 219.459 115.182 216.468 115.182C206.662 115.182 199.932 120.562 199.932 134.482C199.932 144.858 203.542 150.708 211.405 150.708C220.527 150.708 225.612 140.909 225.612 132.091V116.1H225.591ZM226.146 158.8C226.146 156.067 226.403 152.01 226.979 149.128H226.745C223.625 155.448 216.895 159.824 208.029 159.824C193.928 159.824 186.878 150.473 186.878 135.507C186.878 117.744 198.329 106.343 216.895 106.343C219.694 106.343 222.45 106.557 225.569 106.77V82.9868H237.811V158.778H226.146V158.8Z" fill="#A9A9A9"/>
<path d="M271.247 114.435C264.325 114.435 259.433 119.11 258.407 126.241H282.784C283.041 119.025 278.533 114.435 271.247 114.435ZM294.706 133.97H258.193C257.83 145.712 263.406 150.878 275.178 150.878C280.733 150.878 286.523 149.854 291.693 147.868L293.338 156.493C287.335 158.564 280.135 159.824 272.999 159.824C255.288 159.824 245.481 151.519 245.481 133.329C245.481 117.872 255.288 106.151 271.952 106.151C288.339 106.151 295.176 115.908 295.176 127.629C295.154 129.315 295.048 131.771 294.706 133.97Z" fill="#A9A9A9"/>
<path d="M339.315 158.799V125.664C339.315 119.238 337.35 115.374 330.748 115.374C322.074 115.374 315.729 123.594 315.729 133.97V158.799H303.359V107.197H315.152C315.152 109.994 314.938 114.456 314.34 117.359H314.468C317.823 110.741 324.745 106.151 334.444 106.151C347.52 106.151 351.557 113.645 351.557 122.676V158.799H339.315Z" fill="#A9A9A9"/>
<path d="M383.733 159.717C371.491 159.717 367.773 155.447 367.773 143.918V115.801H356.792V107.175H367.773V90.7789L380.144 87.7686V107.175H395.184V115.801H380.144V140.502C380.144 148.167 381.896 150.238 387.664 150.238C390.206 150.238 392.642 149.96 394.736 149.533L395.761 158.436C392.279 159.183 387.557 159.717 383.733 159.717Z" fill="#A9A9A9"/>
<path d="M138.358 15.6066L137.845 42.5072C148.592 54.2496 155.194 69.8775 155.194 87C155.194 123.615 125.134 153.291 88.1083 153.291C51.0191 153.291 20.9802 123.593 20.9802 87C20.9802 50.3853 51.0191 20.7305 88.1083 20.7305C92.595 20.7305 97.0174 21.1575 101.29 22.0115V1.00344C96.9747 0.341598 92.5736 0 88.1083 0C39.4394 0 0 38.9205 0 86.9786C0 135.037 39.4394 174 88.1083 174C136.735 174 176.153 135.037 176.153 86.9786C176.153 57.4307 161.197 31.2986 138.358 15.6066Z" fill="#A9A9A9"/>
<path d="M109.644 60.4404C107.379 59.7145 101.098 57.1952 91.4413 57.1952C76.3364 57.1952 63.5389 66.3329 63.5389 89.8176C63.5389 107.367 71.5506 117.209 83.6431 117.209C97.6584 117.209 109.644 106.513 109.644 91.5896V60.4404ZM111.46 120.369C108.149 126.817 94.5605 132.645 80.9084 132.645C59.2446 132.645 41.8109 116.846 41.8109 91.5682C41.8109 61.5719 63.5815 42.2932 92.189 42.2932C101.461 42.2932 107.016 43.9585 109.665 44.6417V2.68945C109.665 2.68945 118.639 4.4188 130.176 10.5889V130.852C130.154 130.873 113.981 132.773 111.46 120.369Z" fill="#A9A9A9"/>
</svg>
