<?xml version="1.0" encoding="utf-8"?>
<svg version="1.1" id="Слой_1" xmlns="http://www.w3.org/2000/svg" xmlns:xlink="http://www.w3.org/1999/xlink" x="0px" y="0px"
	 width="26px" height="26px" viewBox="0 0 26 26" style="enable-background:new 0 0 26 26;" xml:space="preserve">
<style type="text/css">
	.st0{fill:#58B467;}
	.st1{fill:#FFFFFF;}
</style>
<circle class="st0" cx="13" cy="13" r="12.5"/>
<path class="st1" d="M6.1,19.9L7,16.5c-0.6-1.1-0.9-2.3-0.9-3.5c0-3.8,3.1-6.9,6.9-6.9c3.8,0,6.9,3.1,6.9,6.9c0,3.8-3.1,6.9-6.9,6.9
	c-1.2,0-2.4-0.3-3.5-0.9L6.1,19.9z M10.5,9.7c-0.1,0-0.2,0-0.3,0.1c-0.1,0-0.1,0.1-0.2,0.2c-0.1,0.1-0.1,0.1-0.2,0.2
	c-0.3,0.3-0.4,0.7-0.4,1.2c0,0.3,0.1,0.7,0.2,1c0.3,0.6,0.8,1.3,1.4,1.9c0.1,0.1,0.3,0.3,0.5,0.4c0.8,0.7,1.7,1.2,2.7,1.4l0.4,0.1
	c0.1,0,0.3,0,0.4,0c0.2,0,0.4-0.1,0.6-0.2c0.1-0.1,0.2-0.1,0.3-0.2c0,0,0,0,0.1-0.1c0.1-0.1,0.2-0.1,0.2-0.2
	c0.1-0.1,0.1-0.1,0.1-0.2c0.1-0.1,0.1-0.3,0.1-0.5c0-0.1,0-0.2,0-0.3c0-0.1-0.1-0.2-0.1-0.2l-0.4-0.2c0,0-0.6-0.3-1-0.4
	c0,0-0.1,0-0.1,0c0,0-0.1,0-0.1,0c0,0-0.1,0-0.1,0.1v0c0,0-0.1,0-0.6,0.6c0,0-0.1,0.1-0.1,0.1c0,0-0.1,0-0.1,0c0,0-0.1,0-0.1,0
	c-0.1,0-0.1-0.1-0.2-0.1l0,0c-0.4-0.2-0.8-0.4-1.1-0.7c-0.1-0.1-0.2-0.2-0.3-0.2c-0.3-0.3-0.5-0.6-0.7-0.9l0-0.1
	c0,0-0.1-0.1-0.1-0.1c0-0.1,0-0.2,0-0.2s0.2-0.2,0.2-0.3c0.1-0.1,0.1-0.2,0.2-0.3c0.1-0.1,0.1-0.3,0.1-0.4c-0.2-0.5-0.4-0.9-0.6-1.4
	c0-0.1-0.2-0.2-0.3-0.2c0,0-0.1,0-0.1,0C10.7,9.7,10.6,9.7,10.5,9.7L10.5,9.7z"/>
</svg>
