<svg width="63" height="14" fill="none" xmlns="http://www.w3.org/2000/svg"><path d="M5.661 7.159c0 .884-.202 1.597-.607 2.137-.404.541-.952.811-1.643.811-.706 0-1.26-.223-1.665-.671v2.798H.752V4.188h.908l.048.645c.405-.501.967-.752 1.687-.752.698 0 1.25.263 1.654.79.408.526.612 1.258.612 2.196v.092zm-.994-.113c0-.655-.14-1.173-.418-1.552-.28-.38-.663-.57-1.15-.57-.601 0-1.053.267-1.353.8v2.777c.297.53.752.795 1.364.795.476 0 .854-.188 1.133-.564.283-.38.424-.941.424-1.686zm4.673 3.061c-.787 0-1.428-.257-1.923-.773-.494-.52-.74-1.212-.74-2.079v-.182c0-.577.108-1.09.327-1.542.222-.454.53-.809.924-1.063a2.324 2.324 0 011.289-.387c.755 0 1.343.249 1.761.747.42.497.629 1.21.629 2.137v.414H7.67c.014.573.18 1.037.5 1.391.322.35.73.526 1.224.526.35 0 .648-.071.892-.214a2.24 2.24 0 00.639-.57l.607.473c-.487.748-1.218 1.122-2.192 1.122zm-.123-5.21c-.401 0-.738.147-1.01.44-.272.29-.44.7-.505 1.226h2.911v-.076c-.028-.505-.164-.895-.408-1.17-.243-.28-.573-.42-.988-.42zm5.355 2.627h-.725V10h-1V4.188h1v2.46h.65l1.955-2.46h1.203l-2.299 2.793L17.848 10h-1.262l-2.014-2.476zm8.894-3.336V10h-.999V5.01h-1.976l-.118 2.176c-.065.999-.233 1.713-.505 2.143-.269.43-.697.653-1.284.671h-.398v-.875l.285-.022c.323-.036.553-.222.693-.559.14-.336.23-.96.269-1.869l.107-2.487h3.926zM28.65 10c-.057-.115-.103-.319-.14-.612-.461.48-1.013.72-1.654.72-.572 0-1.043-.162-1.412-.484a1.584 1.584 0 01-.548-1.235c0-.605.23-1.075.688-1.408.461-.336 1.11-.504 1.944-.504h.967V6.02c0-.347-.104-.623-.312-.827-.208-.208-.514-.312-.918-.312-.355 0-.652.09-.892.269-.24.179-.36.396-.36.65h-.999c0-.29.102-.57.306-.838a2.13 2.13 0 01.838-.645 2.838 2.838 0 011.166-.236c.67 0 1.194.168 1.573.505.38.333.577.793.591 1.38v2.675c0 .534.068.958.204 1.273V10H28.65zM27 9.243c.312 0 .607-.08.887-.242.279-.161.481-.37.607-.628V7.18h-.78c-1.217 0-1.825.356-1.825 1.069 0 .312.104.555.311.73.208.176.475.264.8.264zm7.391-.559l1.977-4.496h1.24V10h-.993V5.773L34.735 10h-.688L32.13 5.682V10h-.994V4.188h1.29l1.965 4.496zM42.797 10c-.057-.115-.104-.319-.14-.612-.462.48-1.013.72-1.654.72-.573 0-1.044-.162-1.413-.484a1.584 1.584 0 01-.548-1.235c0-.605.23-1.075.688-1.408.462-.336 1.11-.504 1.944-.504h.967V6.02c0-.347-.104-.623-.311-.827-.208-.208-.514-.312-.919-.312-.354 0-.652.09-.892.269-.24.179-.36.396-.36.65h-.998c0-.29.102-.57.306-.838a2.13 2.13 0 01.838-.645 2.837 2.837 0 011.165-.236c.67 0 1.194.168 1.574.505.38.333.576.793.59 1.38v2.675c0 .534.069.958.205 1.273V10h-1.042zm-1.65-.757c.313 0 .608-.08.887-.242.28-.161.482-.37.607-.628V7.18h-.779c-1.217 0-1.826.356-1.826 1.069 0 .312.104.555.312.73.207.176.474.264.8.264zM56.831 11h-.993V5.188h.993V11zm-1.074-7.353a.6.6 0 01.145-.408c.1-.111.247-.167.44-.167.194 0 .34.056.441.167.1.11.15.247.15.408a.57.57 0 01-.15.403c-.1.107-.247.16-.44.16-.194 0-.34-.053-.44-.16a.58.58 0 01-.146-.403z" fill="#B8CED4"/><circle cx="56" cy="7" r="6.5" stroke="#B8CED4"/></svg>