<svg width="17" height="16" viewBox="0 0 17 16" fill="none" xmlns="http://www.w3.org/2000/svg">
<path d="M8.9446 2.75216C8.28402 2.2237 7.48528 1.8966 6.64378 1.80993C5.80229 1.72326 4.95364 1.88069 4.19922 2.26341C3.4448 2.64613 2.81652 3.23795 2.38944 3.96817C1.96236 4.6984 1.75455 5.53614 1.79082 6.3813C1.8271 7.22647 2.10593 8.04332 2.594 8.73426C3.08208 9.42521 3.75876 9.96102 4.54319 10.2777C5.32763 10.5944 6.18665 10.6785 7.01762 10.5201C7.84859 10.3616 8.61638 9.96726 9.22924 9.38415L6.19241 6.19239L8.9446 2.75216Z" fill="#FFC179"/>
<path d="M7.9105 12.3298C8.57877 12.8485 9.38223 13.1638 10.2249 13.2381C11.0676 13.3124 11.9138 13.1425 12.6625 12.7487C13.4113 12.355 14.0308 11.754 14.4471 11.0176C14.8634 10.2811 15.0589 9.44043 15.0102 8.59589C14.9615 7.75135 14.6707 6.93868 14.1725 6.25499C13.6743 5.57129 12.9898 5.04548 12.2008 4.74037C11.4118 4.43526 10.5517 4.36375 9.7231 4.5344C8.89455 4.70505 8.13265 5.11063 7.52842 5.70268L10.6118 8.84947L7.9105 12.3298Z" fill="#C4C4C4"/>
</svg>
