<svg width="19" height="19" fill="none" xmlns="http://www.w3.org/2000/svg"><circle cx="9.5" cy="9.5" r="9.5" fill="#FFC179"/><path d="M8.25 12.208c0 .599-.522 1.084-1.167 1.084-.644 0-1.167-.485-1.167-1.084m2.334 0c0-.598-.522-1.083-1.167-1.083-.644 0-1.167.485-1.167 1.083m2.334 0h3.5m-5.833 0H4.75v-2.166m9.333 2.166c0 .599-.522 1.084-1.167 1.084-.644 0-1.166-.485-1.166-1.084m2.333 0c0-.598-.522-1.083-1.167-1.083-.644 0-1.166.485-1.166 1.083m2.333 0h1.167v-3.25M4.166 5.708h6.417v6.5m4.667-3.25h-4.667m4.667 0L13.5 6.25h-2.917M4.75 7.875h2.333" stroke="#fff" stroke-linecap="round" stroke-linejoin="round"/></svg>