<svg width="39" height="30" viewBox="0 0 39 30" fill="none" xmlns="http://www.w3.org/2000/svg">
<path d="M0 21.3642L6.9407 17.0773L8.7487 9.66028L11.7625 17.619H11.8795L19.2237 9.60176L15.7938 20.3483L21.8896 21.3642L27.2994 0.882324H20.9208L13.957 8.81175L11.2358 0.882324H5.50085L0 21.3642Z" fill="#F33737"/>
<path d="M28.3497 29.2889C33.4409 29.2889 36.601 25.3502 36.601 21.1368C36.601 18.0645 34.4357 16.6308 31.2757 15.4311C28.4667 14.3193 27.8523 14.0267 27.8523 13.2074C27.8523 12.3881 28.7008 11.7444 30.076 11.7444C32.1535 11.7444 33.9383 12.6514 35.4891 13.9974L39.0003 10.0766C37.0399 8.20395 34.2017 7.03355 30.6027 7.03355C25.5993 7.03355 21.9125 9.93028 21.9125 13.9974C21.9125 17.0112 23.99 18.4156 27.2378 19.6446C30.1053 20.7564 30.6612 21.1661 30.6612 21.9561C30.6612 22.8924 29.6956 23.4776 28.3497 23.4776C26.0967 23.4776 23.8794 23.2077 21.8898 21.3644L18.6387 26.241C20.8332 28.6111 24.3411 29.2889 28.3497 29.2889Z" fill="#F33737"/>
<circle cx="19.1699" cy="21.3738" r="5.94917" fill="#45494A"/>
<path d="M18.5089 16.0859L19.6961 19.7399L23.5382 19.7399L20.4299 21.9982L21.6172 25.6522L18.5089 23.3939L15.4006 25.6522L16.5878 21.9982L13.4795 19.7399L17.3216 19.7399L18.5089 16.0859Z" fill="#EE2929"/>
</svg>
