<svg width="25" height="26" viewBox="0 0 25 26" fill="none" xmlns="http://www.w3.org/2000/svg">
<path d="M24.9662 16.3802C24.9262 16.1718 24.7664 15.8801 24.6066 15.7134C24.0872 15.2132 23.0084 14.9214 21.3302 14.9214C20.1715 14.9214 18.813 15.0048 17.3746 15.2132C16.7353 14.8381 16.0561 14.4213 15.5366 13.8794C14.1382 12.504 12.9395 10.5867 12.2203 8.50272C12.2603 8.29432 12.3002 8.1276 12.3402 7.96088C12.3402 7.96088 13.1393 3.25104 12.9395 1.6672C12.8596 1.4588 12.8596 1.41712 12.7797 1.2504L12.6998 1.08368C12.5 0.54184 12.1004 0 11.4212 0H11.0216C10.2625 0 9.66314 0.4168 9.50332 1.00032C9.02385 2.83424 9.50332 5.6268 10.4223 9.21128L10.1826 9.7948C9.54328 11.4203 8.74416 13.0875 8.02496 14.5463L7.94505 14.713C7.18589 16.2552 6.50664 17.5473 5.90731 18.631L5.26801 18.9644C5.22806 19.0061 4.14925 19.5896 3.86956 19.7563C1.71196 21.0901 0.27355 22.6322 0.0338161 23.841C-0.0460954 24.2577 -0.00613967 24.7579 0.393418 25.008L0.992753 25.3414C1.27244 25.4665 1.55213 25.5498 1.83182 25.5498C3.3901 25.5498 5.1881 23.5492 7.6254 19.0478C10.4623 18.0891 13.7386 17.2555 16.5755 16.8387C18.7331 18.1308 21.4101 19.0061 23.0883 19.0061C23.4079 19.0061 23.6476 18.9644 23.8474 18.9227C24.1671 18.8394 24.4468 18.631 24.6066 18.3809C25.0061 17.839 25.0461 17.1305 24.9662 16.3802ZM1.51218 24.2994C1.79187 23.5075 2.91063 21.882 4.54881 20.5066C4.66868 20.4232 4.90841 20.1731 5.14815 19.923C3.43005 22.799 2.27134 23.966 1.51218 24.2994ZM11.3013 0.8336C11.7808 0.8336 12.1004 2.12568 12.1004 3.37608C12.1404 4.5848 11.8607 5.46008 11.5011 6.08528C11.2214 5.12664 11.1016 3.66784 11.1016 2.66752C11.0616 2.7092 11.0616 0.8336 11.3013 0.8336ZM8.38456 17.5473C8.74416 16.8804 9.10376 16.2135 9.46337 15.505C10.3424 13.7544 10.9417 12.3373 11.3413 11.2119C12.1804 12.7958 13.2192 14.1712 14.4578 15.2549C14.6177 15.3799 14.7775 15.5466 14.9373 15.6717C12.4201 16.1718 10.2625 16.797 8.38456 17.5473ZM24.1271 17.4222C23.9673 17.5056 23.5278 17.589 23.2481 17.589C22.3291 17.589 21.2103 17.1722 19.6521 16.4636C20.2514 16.4219 20.8108 16.3802 21.2903 16.3802C22.2092 16.3802 22.449 16.3802 23.368 16.6303C24.247 16.8387 24.2869 17.3389 24.1271 17.4222Z" fill="#FF402F"/>
</svg>
